<svg xmlns="http://www.w3.org/2000/svg" xmlns:xlink="http://www.w3.org/1999/xlink" xmlns:inkscape="http://www.inkscape.org/namespaces/inkscape" version="1.1" width="557.8459" height="416.13188" viewBox="0 0 557.8459 416.13188">
<defs>
<clipPath id="clip_1">
<path transform="matrix(1,0,0,-1,0,416.13188)" d="M61.621877 43.871877H550.6459V408.9319H61.621877Z"/>
</clipPath>
<clipPath id="clip_2">
<path transform="matrix(1,0,0,-1,0,416.13188)" d="M61.621877 43.871877H550.6459V408.9319H61.621877Z"/>
</clipPath>
<clipPath id="clip_3">
<path transform="matrix(1,0,0,-1,0,416.13188)" d="M61.621877 43.871877H550.6459V408.9319H61.621877Z"/>
</clipPath>
<clipPath id="clip_4">
<path transform="matrix(.012,0,0,-.012,183.09024,27.125)" d="M-770-347H2106V1110H-770Z"/>
</clipPath>
<clipPath id="clip_5">
<path transform="matrix(.012,0,0,-.012,241.20597,27.125)" d="M-770-347H2106V1110H-770Z"/>
</clipPath>
<clipPath id="clip_6">
<path transform="matrix(.0084,0,0,-.0084,251.26428,28.995312)" d="M-770-347H2106V1110H-770Z"/>
</clipPath>
<clipPath id="clip_7">
<path transform="matrix(.012,0,0,-.012,186.96329,46.125)" d="M-770-347H2106V1110H-770Z"/>
</clipPath>
<clipPath id="clip_8">
<path transform="matrix(.012,0,0,-.012,245.07901,46.125)" d="M-770-347H2106V1110H-770Z"/>
</clipPath>
<clipPath id="clip_9">
<path transform="matrix(.0084,0,0,-.0084,255.13733,47.99531)" d="M-770-347H2106V1110H-770Z"/>
</clipPath>
<clipPath id="clip_10">
<path transform="matrix(.012,0,0,-.012,226.26212,64.625)" d="M-770-347H2106V1110H-770Z"/>
</clipPath>
<clipPath id="clip_11">
<path transform="matrix(.012,0,0,-.012,299.64738,64.625)" d="M-770-347H2106V1110H-770Z"/>
</clipPath>
<clipPath id="clip_12">
<path transform="matrix(.0084,0,0,-.0084,309.7057,66.495319)" d="M-770-347H2106V1110H-770Z"/>
</clipPath>
</defs>
<path transform="matrix(1,0,0,-1,0,416.13188)" d="M0 0H557.8459V416.13188H0Z" fill="#ffffff"/>
<path transform="matrix(1,0,0,-1,0,416.13188)" d="M61.621877 43.871877H550.6459V408.9319H61.621877Z" fill="#ffffff"/>
<path transform="matrix(1,0,0,-1,0,416.13188)" d="M83.80578 43.871877V49.871877"/>
<path transform="matrix(1,0,0,-1,0,416.13188)" stroke-width="1.2" stroke-linecap="butt" stroke-linejoin="round" fill="none" stroke="#000000" d="M83.80578 43.871877V49.871877"/>
<path transform="matrix(1,0,0,-1,0,416.13188)" d="M83.80578 408.9319V402.9319"/>
<path transform="matrix(1,0,0,-1,0,416.13188)" stroke-width="1.2" stroke-linecap="butt" stroke-linejoin="round" fill="none" stroke="#000000" d="M83.80578 408.9319V402.9319"/>
<text xml:space="preserve" transform="matrix(1 0 -0 1 79.985469 384.88499)" font-size="12" font-family="DejaVuSerif"><tspan y="0" x="0">0</tspan></text>
<path transform="matrix(1,0,0,-1,0,416.13188)" d="M172.72812 43.871877V49.871877"/>
<path transform="matrix(1,0,0,-1,0,416.13188)" stroke-width="1.2" stroke-linecap="butt" stroke-linejoin="round" fill="none" stroke="#000000" d="M172.72812 43.871877V49.871877"/>
<path transform="matrix(1,0,0,-1,0,416.13188)" d="M172.72812 408.9319V402.9319"/>
<path transform="matrix(1,0,0,-1,0,416.13188)" stroke-width="1.2" stroke-linecap="butt" stroke-linejoin="round" fill="none" stroke="#000000" d="M172.72812 408.9319V402.9319"/>
<text xml:space="preserve" transform="matrix(1 0 -0 1 168.9078 384.88499)" font-size="12" font-family="DejaVuSerif"><tspan y="0" x="0">2</tspan></text>
<path transform="matrix(1,0,0,-1,0,416.13188)" d="M261.65049 43.871877V49.871877"/>
<path transform="matrix(1,0,0,-1,0,416.13188)" stroke-width="1.2" stroke-linecap="butt" stroke-linejoin="round" fill="none" stroke="#000000" d="M261.65049 43.871877V49.871877"/>
<path transform="matrix(1,0,0,-1,0,416.13188)" d="M261.65049 408.9319V402.9319"/>
<path transform="matrix(1,0,0,-1,0,416.13188)" stroke-width="1.2" stroke-linecap="butt" stroke-linejoin="round" fill="none" stroke="#000000" d="M261.65049 408.9319V402.9319"/>
<text xml:space="preserve" transform="matrix(1 0 -0 1 257.83018 384.88499)" font-size="12" font-family="DejaVuSerif"><tspan y="0" x="0">4</tspan></text>
<path transform="matrix(1,0,0,-1,0,416.13188)" d="M350.5728 43.871877V49.871877"/>
<path transform="matrix(1,0,0,-1,0,416.13188)" stroke-width="1.2" stroke-linecap="butt" stroke-linejoin="round" fill="none" stroke="#000000" d="M350.5728 43.871877V49.871877"/>
<path transform="matrix(1,0,0,-1,0,416.13188)" d="M350.5728 408.9319V402.9319"/>
<path transform="matrix(1,0,0,-1,0,416.13188)" stroke-width="1.2" stroke-linecap="butt" stroke-linejoin="round" fill="none" stroke="#000000" d="M350.5728 408.9319V402.9319"/>
<text xml:space="preserve" transform="matrix(1 0 -0 1 346.7525 384.88499)" font-size="12" font-family="DejaVuSerif"><tspan y="0" x="0">6</tspan></text>
<path transform="matrix(1,0,0,-1,0,416.13188)" d="M439.49519 43.871877V49.871877"/>
<path transform="matrix(1,0,0,-1,0,416.13188)" stroke-width="1.2" stroke-linecap="butt" stroke-linejoin="round" fill="none" stroke="#000000" d="M439.49519 43.871877V49.871877"/>
<path transform="matrix(1,0,0,-1,0,416.13188)" d="M439.49519 408.9319V402.9319"/>
<path transform="matrix(1,0,0,-1,0,416.13188)" stroke-width="1.2" stroke-linecap="butt" stroke-linejoin="round" fill="none" stroke="#000000" d="M439.49519 408.9319V402.9319"/>
<text xml:space="preserve" transform="matrix(1 0 -0 1 435.67488 384.88499)" font-size="12" font-family="DejaVuSerif"><tspan y="0" x="0">8</tspan></text>
<path transform="matrix(1,0,0,-1,0,416.13188)" d="M528.41757 43.871877V49.871877"/>
<path transform="matrix(1,0,0,-1,0,416.13188)" stroke-width="1.2" stroke-linecap="butt" stroke-linejoin="round" fill="none" stroke="#000000" d="M528.41757 43.871877V49.871877"/>
<path transform="matrix(1,0,0,-1,0,416.13188)" d="M528.41757 408.9319V402.9319"/>
<path transform="matrix(1,0,0,-1,0,416.13188)" stroke-width="1.2" stroke-linecap="butt" stroke-linejoin="round" fill="none" stroke="#000000" d="M528.41757 408.9319V402.9319"/>
<text xml:space="preserve" transform="matrix(1 0 -0 1 520.7769 384.88499)" font-size="12" font-family="DejaVuSerif"><tspan y="0" x="0 7.6320006">10</tspan></text>
<path transform="matrix(1,0,0,-1,0,416.13188)" d="M106.03636 43.871877V46.871877"/>
<path transform="matrix(1,0,0,-1,0,416.13188)" stroke-width="1" stroke-linecap="butt" stroke-linejoin="round" fill="none" stroke="#000000" d="M106.03636 43.871877V46.871877"/>
<path transform="matrix(1,0,0,-1,0,416.13188)" d="M106.03636 408.9319V405.9319"/>
<path transform="matrix(1,0,0,-1,0,416.13188)" stroke-width="1" stroke-linecap="butt" stroke-linejoin="round" fill="none" stroke="#000000" d="M106.03636 408.9319V405.9319"/>
<path transform="matrix(1,0,0,-1,0,416.13188)" d="M128.26696 43.871877V46.871877"/>
<path transform="matrix(1,0,0,-1,0,416.13188)" stroke-width="1" stroke-linecap="butt" stroke-linejoin="round" fill="none" stroke="#000000" d="M128.26696 43.871877V46.871877"/>
<path transform="matrix(1,0,0,-1,0,416.13188)" d="M128.26696 408.9319V405.9319"/>
<path transform="matrix(1,0,0,-1,0,416.13188)" stroke-width="1" stroke-linecap="butt" stroke-linejoin="round" fill="none" stroke="#000000" d="M128.26696 408.9319V405.9319"/>
<path transform="matrix(1,0,0,-1,0,416.13188)" d="M150.49755 43.871877V46.871877"/>
<path transform="matrix(1,0,0,-1,0,416.13188)" stroke-width="1" stroke-linecap="butt" stroke-linejoin="round" fill="none" stroke="#000000" d="M150.49755 43.871877V46.871877"/>
<path transform="matrix(1,0,0,-1,0,416.13188)" d="M150.49755 408.9319V405.9319"/>
<path transform="matrix(1,0,0,-1,0,416.13188)" stroke-width="1" stroke-linecap="butt" stroke-linejoin="round" fill="none" stroke="#000000" d="M150.49755 408.9319V405.9319"/>
<path transform="matrix(1,0,0,-1,0,416.13188)" d="M194.95871 43.871877V46.871877"/>
<path transform="matrix(1,0,0,-1,0,416.13188)" stroke-width="1" stroke-linecap="butt" stroke-linejoin="round" fill="none" stroke="#000000" d="M194.95871 43.871877V46.871877"/>
<path transform="matrix(1,0,0,-1,0,416.13188)" d="M194.95871 408.9319V405.9319"/>
<path transform="matrix(1,0,0,-1,0,416.13188)" stroke-width="1" stroke-linecap="butt" stroke-linejoin="round" fill="none" stroke="#000000" d="M194.95871 408.9319V405.9319"/>
<path transform="matrix(1,0,0,-1,0,416.13188)" d="M217.1893 43.871877V46.871877"/>
<path transform="matrix(1,0,0,-1,0,416.13188)" stroke-width="1" stroke-linecap="butt" stroke-linejoin="round" fill="none" stroke="#000000" d="M217.1893 43.871877V46.871877"/>
<path transform="matrix(1,0,0,-1,0,416.13188)" d="M217.1893 408.9319V405.9319"/>
<path transform="matrix(1,0,0,-1,0,416.13188)" stroke-width="1" stroke-linecap="butt" stroke-linejoin="round" fill="none" stroke="#000000" d="M217.1893 408.9319V405.9319"/>
<path transform="matrix(1,0,0,-1,0,416.13188)" d="M239.41989 43.871877V46.871877"/>
<path transform="matrix(1,0,0,-1,0,416.13188)" stroke-width="1" stroke-linecap="butt" stroke-linejoin="round" fill="none" stroke="#000000" d="M239.41989 43.871877V46.871877"/>
<path transform="matrix(1,0,0,-1,0,416.13188)" d="M239.41989 408.9319V405.9319"/>
<path transform="matrix(1,0,0,-1,0,416.13188)" stroke-width="1" stroke-linecap="butt" stroke-linejoin="round" fill="none" stroke="#000000" d="M239.41989 408.9319V405.9319"/>
<path transform="matrix(1,0,0,-1,0,416.13188)" d="M283.88108 43.871877V46.871877"/>
<path transform="matrix(1,0,0,-1,0,416.13188)" stroke-width="1" stroke-linecap="butt" stroke-linejoin="round" fill="none" stroke="#000000" d="M283.88108 43.871877V46.871877"/>
<path transform="matrix(1,0,0,-1,0,416.13188)" d="M283.88108 408.9319V405.9319"/>
<path transform="matrix(1,0,0,-1,0,416.13188)" stroke-width="1" stroke-linecap="butt" stroke-linejoin="round" fill="none" stroke="#000000" d="M283.88108 408.9319V405.9319"/>
<path transform="matrix(1,0,0,-1,0,416.13188)" d="M306.11164 43.871877V46.871877"/>
<path transform="matrix(1,0,0,-1,0,416.13188)" stroke-width="1" stroke-linecap="butt" stroke-linejoin="round" fill="none" stroke="#000000" d="M306.11164 43.871877V46.871877"/>
<path transform="matrix(1,0,0,-1,0,416.13188)" d="M306.11164 408.9319V405.9319"/>
<path transform="matrix(1,0,0,-1,0,416.13188)" stroke-width="1" stroke-linecap="butt" stroke-linejoin="round" fill="none" stroke="#000000" d="M306.11164 408.9319V405.9319"/>
<path transform="matrix(1,0,0,-1,0,416.13188)" d="M328.34223 43.871877V46.871877"/>
<path transform="matrix(1,0,0,-1,0,416.13188)" stroke-width="1" stroke-linecap="butt" stroke-linejoin="round" fill="none" stroke="#000000" d="M328.34223 43.871877V46.871877"/>
<path transform="matrix(1,0,0,-1,0,416.13188)" d="M328.34223 408.9319V405.9319"/>
<path transform="matrix(1,0,0,-1,0,416.13188)" stroke-width="1" stroke-linecap="butt" stroke-linejoin="round" fill="none" stroke="#000000" d="M328.34223 408.9319V405.9319"/>
<path transform="matrix(1,0,0,-1,0,416.13188)" d="M372.8034 43.871877V46.871877"/>
<path transform="matrix(1,0,0,-1,0,416.13188)" stroke-width="1" stroke-linecap="butt" stroke-linejoin="round" fill="none" stroke="#000000" d="M372.8034 43.871877V46.871877"/>
<path transform="matrix(1,0,0,-1,0,416.13188)" d="M372.8034 408.9319V405.9319"/>
<path transform="matrix(1,0,0,-1,0,416.13188)" stroke-width="1" stroke-linecap="butt" stroke-linejoin="round" fill="none" stroke="#000000" d="M372.8034 408.9319V405.9319"/>
<path transform="matrix(1,0,0,-1,0,416.13188)" d="M395.034 43.871877V46.871877"/>
<path transform="matrix(1,0,0,-1,0,416.13188)" stroke-width="1" stroke-linecap="butt" stroke-linejoin="round" fill="none" stroke="#000000" d="M395.034 43.871877V46.871877"/>
<path transform="matrix(1,0,0,-1,0,416.13188)" d="M395.034 408.9319V405.9319"/>
<path transform="matrix(1,0,0,-1,0,416.13188)" stroke-width="1" stroke-linecap="butt" stroke-linejoin="round" fill="none" stroke="#000000" d="M395.034 408.9319V405.9319"/>
<path transform="matrix(1,0,0,-1,0,416.13188)" d="M417.2646 43.871877V46.871877"/>
<path transform="matrix(1,0,0,-1,0,416.13188)" stroke-width="1" stroke-linecap="butt" stroke-linejoin="round" fill="none" stroke="#000000" d="M417.2646 43.871877V46.871877"/>
<path transform="matrix(1,0,0,-1,0,416.13188)" d="M417.2646 408.9319V405.9319"/>
<path transform="matrix(1,0,0,-1,0,416.13188)" stroke-width="1" stroke-linecap="butt" stroke-linejoin="round" fill="none" stroke="#000000" d="M417.2646 408.9319V405.9319"/>
<path transform="matrix(1,0,0,-1,0,416.13188)" d="M461.72575 43.871877V46.871877"/>
<path transform="matrix(1,0,0,-1,0,416.13188)" stroke-width="1" stroke-linecap="butt" stroke-linejoin="round" fill="none" stroke="#000000" d="M461.72575 43.871877V46.871877"/>
<path transform="matrix(1,0,0,-1,0,416.13188)" d="M461.72575 408.9319V405.9319"/>
<path transform="matrix(1,0,0,-1,0,416.13188)" stroke-width="1" stroke-linecap="butt" stroke-linejoin="round" fill="none" stroke="#000000" d="M461.72575 408.9319V405.9319"/>
<path transform="matrix(1,0,0,-1,0,416.13188)" d="M483.95634 43.871877V46.871877"/>
<path transform="matrix(1,0,0,-1,0,416.13188)" stroke-width="1" stroke-linecap="butt" stroke-linejoin="round" fill="none" stroke="#000000" d="M483.95634 43.871877V46.871877"/>
<path transform="matrix(1,0,0,-1,0,416.13188)" d="M483.95634 408.9319V405.9319"/>
<path transform="matrix(1,0,0,-1,0,416.13188)" stroke-width="1" stroke-linecap="butt" stroke-linejoin="round" fill="none" stroke="#000000" d="M483.95634 408.9319V405.9319"/>
<path transform="matrix(1,0,0,-1,0,416.13188)" d="M506.18693 43.871877V46.871877"/>
<path transform="matrix(1,0,0,-1,0,416.13188)" stroke-width="1" stroke-linecap="butt" stroke-linejoin="round" fill="none" stroke="#000000" d="M506.18693 43.871877V46.871877"/>
<path transform="matrix(1,0,0,-1,0,416.13188)" d="M506.18693 408.9319V405.9319"/>
<path transform="matrix(1,0,0,-1,0,416.13188)" stroke-width="1" stroke-linecap="butt" stroke-linejoin="round" fill="none" stroke="#000000" d="M506.18693 408.9319V405.9319"/>
<text xml:space="preserve" transform="matrix(1 0 -0 1 302.44639 406.0256)" font-size="14" font-family="DejaVuSerif"><tspan y="0" x="0">z</tspan></text>
<path transform="matrix(1,0,0,-1,0,416.13188)" d="M61.621877 60.462495H67.62187"/>
<path transform="matrix(1,0,0,-1,0,416.13188)" stroke-width="1.2" stroke-linecap="butt" stroke-linejoin="round" fill="none" stroke="#000000" d="M61.621877 60.462495H67.62187"/>
<path transform="matrix(1,0,0,-1,0,416.13188)" d="M550.6459 60.462495H544.6459"/>
<path transform="matrix(1,0,0,-1,0,416.13188)" stroke-width="1.2" stroke-linecap="butt" stroke-linejoin="round" fill="none" stroke="#000000" d="M550.6459 60.462495H544.6459"/>
<text xml:space="preserve" transform="matrix(1 0 -0 1 50.48125 360.23188)" font-size="12" font-family="DejaVuSerif"><tspan y="0" x="0">0</tspan></text>
<path transform="matrix(1,0,0,-1,0,416.13188)" d="M61.621877 120.803539H67.62187"/>
<path transform="matrix(1,0,0,-1,0,416.13188)" stroke-width="1.2" stroke-linecap="butt" stroke-linejoin="round" fill="none" stroke="#000000" d="M61.621877 120.803539H67.62187"/>
<path transform="matrix(1,0,0,-1,0,416.13188)" d="M550.6459 120.803539H544.6459"/>
<path transform="matrix(1,0,0,-1,0,416.13188)" stroke-width="1.2" stroke-linecap="butt" stroke-linejoin="round" fill="none" stroke="#000000" d="M550.6459 120.803539H544.6459"/>
<text xml:space="preserve" transform="matrix(1 0 -0 1 42.840627 299.89085)" font-size="12" font-family="DejaVuSerif"><tspan y="0" x="0 7.6320006">20</tspan></text>
<path transform="matrix(1,0,0,-1,0,416.13188)" d="M61.621877 181.14458H67.62187"/>
<path transform="matrix(1,0,0,-1,0,416.13188)" stroke-width="1.2" stroke-linecap="butt" stroke-linejoin="round" fill="none" stroke="#000000" d="M61.621877 181.14458H67.62187"/>
<path transform="matrix(1,0,0,-1,0,416.13188)" d="M550.6459 181.14458H544.6459"/>
<path transform="matrix(1,0,0,-1,0,416.13188)" stroke-width="1.2" stroke-linecap="butt" stroke-linejoin="round" fill="none" stroke="#000000" d="M550.6459 181.14458H544.6459"/>
<text xml:space="preserve" transform="matrix(1 0 -0 1 42.840627 239.54979)" font-size="12" font-family="DejaVuSerif"><tspan y="0" x="0 7.6320006">40</tspan></text>
<path transform="matrix(1,0,0,-1,0,416.13188)" d="M61.621877 241.48563H67.62187"/>
<path transform="matrix(1,0,0,-1,0,416.13188)" stroke-width="1.2" stroke-linecap="butt" stroke-linejoin="round" fill="none" stroke="#000000" d="M61.621877 241.48563H67.62187"/>
<path transform="matrix(1,0,0,-1,0,416.13188)" d="M550.6459 241.48563H544.6459"/>
<path transform="matrix(1,0,0,-1,0,416.13188)" stroke-width="1.2" stroke-linecap="butt" stroke-linejoin="round" fill="none" stroke="#000000" d="M550.6459 241.48563H544.6459"/>
<text xml:space="preserve" transform="matrix(1 0 -0 1 42.840627 179.20874)" font-size="12" font-family="DejaVuSerif"><tspan y="0" x="0 7.6320006">60</tspan></text>
<path transform="matrix(1,0,0,-1,0,416.13188)" d="M61.621877 301.82667H67.62187"/>
<path transform="matrix(1,0,0,-1,0,416.13188)" stroke-width="1.2" stroke-linecap="butt" stroke-linejoin="round" fill="none" stroke="#000000" d="M61.621877 301.82667H67.62187"/>
<path transform="matrix(1,0,0,-1,0,416.13188)" d="M550.6459 301.82667H544.6459"/>
<path transform="matrix(1,0,0,-1,0,416.13188)" stroke-width="1.2" stroke-linecap="butt" stroke-linejoin="round" fill="none" stroke="#000000" d="M550.6459 301.82667H544.6459"/>
<text xml:space="preserve" transform="matrix(1 0 -0 1 42.840627 118.86771)" font-size="12" font-family="DejaVuSerif"><tspan y="0" x="0 7.6320006">80</tspan></text>
<path transform="matrix(1,0,0,-1,0,416.13188)" d="M61.621877 362.16773H67.62187"/>
<path transform="matrix(1,0,0,-1,0,416.13188)" stroke-width="1.2" stroke-linecap="butt" stroke-linejoin="round" fill="none" stroke="#000000" d="M61.621877 362.16773H67.62187"/>
<path transform="matrix(1,0,0,-1,0,416.13188)" d="M550.6459 362.16773H544.6459"/>
<path transform="matrix(1,0,0,-1,0,416.13188)" stroke-width="1.2" stroke-linecap="butt" stroke-linejoin="round" fill="none" stroke="#000000" d="M550.6459 362.16773H544.6459"/>
<text xml:space="preserve" transform="matrix(1 0 -0 1 35.2 58.52664)" font-size="12" font-family="DejaVuSerif"><tspan y="0" x="0 7.6320006 15.264001">100</tspan></text>
<path transform="matrix(1,0,0,-1,0,416.13188)" d="M61.621877 45.37723H64.62187"/>
<path transform="matrix(1,0,0,-1,0,416.13188)" stroke-width="1" stroke-linecap="butt" stroke-linejoin="round" fill="none" stroke="#000000" d="M61.621877 45.37723H64.62187"/>
<path transform="matrix(1,0,0,-1,0,416.13188)" d="M550.6459 45.37723H547.6459"/>
<path transform="matrix(1,0,0,-1,0,416.13188)" stroke-width="1" stroke-linecap="butt" stroke-linejoin="round" fill="none" stroke="#000000" d="M550.6459 45.37723H547.6459"/>
<path transform="matrix(1,0,0,-1,0,416.13188)" d="M61.621877 75.54775H64.62187"/>
<path transform="matrix(1,0,0,-1,0,416.13188)" stroke-width="1" stroke-linecap="butt" stroke-linejoin="round" fill="none" stroke="#000000" d="M61.621877 75.54775H64.62187"/>
<path transform="matrix(1,0,0,-1,0,416.13188)" d="M550.6459 75.54775H547.6459"/>
<path transform="matrix(1,0,0,-1,0,416.13188)" stroke-width="1" stroke-linecap="butt" stroke-linejoin="round" fill="none" stroke="#000000" d="M550.6459 75.54775H547.6459"/>
<path transform="matrix(1,0,0,-1,0,416.13188)" d="M61.621877 90.63302H64.62187"/>
<path transform="matrix(1,0,0,-1,0,416.13188)" stroke-width="1" stroke-linecap="butt" stroke-linejoin="round" fill="none" stroke="#000000" d="M61.621877 90.63302H64.62187"/>
<path transform="matrix(1,0,0,-1,0,416.13188)" d="M550.6459 90.63302H547.6459"/>
<path transform="matrix(1,0,0,-1,0,416.13188)" stroke-width="1" stroke-linecap="butt" stroke-linejoin="round" fill="none" stroke="#000000" d="M550.6459 90.63302H547.6459"/>
<path transform="matrix(1,0,0,-1,0,416.13188)" d="M61.621877 105.71828H64.62187"/>
<path transform="matrix(1,0,0,-1,0,416.13188)" stroke-width="1" stroke-linecap="butt" stroke-linejoin="round" fill="none" stroke="#000000" d="M61.621877 105.71828H64.62187"/>
<path transform="matrix(1,0,0,-1,0,416.13188)" d="M550.6459 105.71828H547.6459"/>
<path transform="matrix(1,0,0,-1,0,416.13188)" stroke-width="1" stroke-linecap="butt" stroke-linejoin="round" fill="none" stroke="#000000" d="M550.6459 105.71828H547.6459"/>
<path transform="matrix(1,0,0,-1,0,416.13188)" d="M61.621877 135.8888H64.62187"/>
<path transform="matrix(1,0,0,-1,0,416.13188)" stroke-width="1" stroke-linecap="butt" stroke-linejoin="round" fill="none" stroke="#000000" d="M61.621877 135.8888H64.62187"/>
<path transform="matrix(1,0,0,-1,0,416.13188)" d="M550.6459 135.8888H547.6459"/>
<path transform="matrix(1,0,0,-1,0,416.13188)" stroke-width="1" stroke-linecap="butt" stroke-linejoin="round" fill="none" stroke="#000000" d="M550.6459 135.8888H547.6459"/>
<path transform="matrix(1,0,0,-1,0,416.13188)" d="M61.621877 150.97406H64.62187"/>
<path transform="matrix(1,0,0,-1,0,416.13188)" stroke-width="1" stroke-linecap="butt" stroke-linejoin="round" fill="none" stroke="#000000" d="M61.621877 150.97406H64.62187"/>
<path transform="matrix(1,0,0,-1,0,416.13188)" d="M550.6459 150.97406H547.6459"/>
<path transform="matrix(1,0,0,-1,0,416.13188)" stroke-width="1" stroke-linecap="butt" stroke-linejoin="round" fill="none" stroke="#000000" d="M550.6459 150.97406H547.6459"/>
<path transform="matrix(1,0,0,-1,0,416.13188)" d="M61.621877 166.05933H64.62187"/>
<path transform="matrix(1,0,0,-1,0,416.13188)" stroke-width="1" stroke-linecap="butt" stroke-linejoin="round" fill="none" stroke="#000000" d="M61.621877 166.05933H64.62187"/>
<path transform="matrix(1,0,0,-1,0,416.13188)" d="M550.6459 166.05933H547.6459"/>
<path transform="matrix(1,0,0,-1,0,416.13188)" stroke-width="1" stroke-linecap="butt" stroke-linejoin="round" fill="none" stroke="#000000" d="M550.6459 166.05933H547.6459"/>
<path transform="matrix(1,0,0,-1,0,416.13188)" d="M61.621877 196.22985H64.62187"/>
<path transform="matrix(1,0,0,-1,0,416.13188)" stroke-width="1" stroke-linecap="butt" stroke-linejoin="round" fill="none" stroke="#000000" d="M61.621877 196.22985H64.62187"/>
<path transform="matrix(1,0,0,-1,0,416.13188)" d="M550.6459 196.22985H547.6459"/>
<path transform="matrix(1,0,0,-1,0,416.13188)" stroke-width="1" stroke-linecap="butt" stroke-linejoin="round" fill="none" stroke="#000000" d="M550.6459 196.22985H547.6459"/>
<path transform="matrix(1,0,0,-1,0,416.13188)" d="M61.621877 211.31511H64.62187"/>
<path transform="matrix(1,0,0,-1,0,416.13188)" stroke-width="1" stroke-linecap="butt" stroke-linejoin="round" fill="none" stroke="#000000" d="M61.621877 211.31511H64.62187"/>
<path transform="matrix(1,0,0,-1,0,416.13188)" d="M550.6459 211.31511H547.6459"/>
<path transform="matrix(1,0,0,-1,0,416.13188)" stroke-width="1" stroke-linecap="butt" stroke-linejoin="round" fill="none" stroke="#000000" d="M550.6459 211.31511H547.6459"/>
<path transform="matrix(1,0,0,-1,0,416.13188)" d="M61.621877 226.40036H64.62187"/>
<path transform="matrix(1,0,0,-1,0,416.13188)" stroke-width="1" stroke-linecap="butt" stroke-linejoin="round" fill="none" stroke="#000000" d="M61.621877 226.40036H64.62187"/>
<path transform="matrix(1,0,0,-1,0,416.13188)" d="M550.6459 226.40036H547.6459"/>
<path transform="matrix(1,0,0,-1,0,416.13188)" stroke-width="1" stroke-linecap="butt" stroke-linejoin="round" fill="none" stroke="#000000" d="M550.6459 226.40036H547.6459"/>
<path transform="matrix(1,0,0,-1,0,416.13188)" d="M61.621877 256.5709H64.62187"/>
<path transform="matrix(1,0,0,-1,0,416.13188)" stroke-width="1" stroke-linecap="butt" stroke-linejoin="round" fill="none" stroke="#000000" d="M61.621877 256.5709H64.62187"/>
<path transform="matrix(1,0,0,-1,0,416.13188)" d="M550.6459 256.5709H547.6459"/>
<path transform="matrix(1,0,0,-1,0,416.13188)" stroke-width="1" stroke-linecap="butt" stroke-linejoin="round" fill="none" stroke="#000000" d="M550.6459 256.5709H547.6459"/>
<path transform="matrix(1,0,0,-1,0,416.13188)" d="M61.621877 271.65617H64.62187"/>
<path transform="matrix(1,0,0,-1,0,416.13188)" stroke-width="1" stroke-linecap="butt" stroke-linejoin="round" fill="none" stroke="#000000" d="M61.621877 271.65617H64.62187"/>
<path transform="matrix(1,0,0,-1,0,416.13188)" d="M550.6459 271.65617H547.6459"/>
<path transform="matrix(1,0,0,-1,0,416.13188)" stroke-width="1" stroke-linecap="butt" stroke-linejoin="round" fill="none" stroke="#000000" d="M550.6459 271.65617H547.6459"/>
<path transform="matrix(1,0,0,-1,0,416.13188)" d="M61.621877 286.74143H64.62187"/>
<path transform="matrix(1,0,0,-1,0,416.13188)" stroke-width="1" stroke-linecap="butt" stroke-linejoin="round" fill="none" stroke="#000000" d="M61.621877 286.74143H64.62187"/>
<path transform="matrix(1,0,0,-1,0,416.13188)" d="M550.6459 286.74143H547.6459"/>
<path transform="matrix(1,0,0,-1,0,416.13188)" stroke-width="1" stroke-linecap="butt" stroke-linejoin="round" fill="none" stroke="#000000" d="M550.6459 286.74143H547.6459"/>
<path transform="matrix(1,0,0,-1,0,416.13188)" d="M61.621877 316.91194H64.62187"/>
<path transform="matrix(1,0,0,-1,0,416.13188)" stroke-width="1" stroke-linecap="butt" stroke-linejoin="round" fill="none" stroke="#000000" d="M61.621877 316.91194H64.62187"/>
<path transform="matrix(1,0,0,-1,0,416.13188)" d="M550.6459 316.91194H547.6459"/>
<path transform="matrix(1,0,0,-1,0,416.13188)" stroke-width="1" stroke-linecap="butt" stroke-linejoin="round" fill="none" stroke="#000000" d="M550.6459 316.91194H547.6459"/>
<path transform="matrix(1,0,0,-1,0,416.13188)" d="M61.621877 331.9972H64.62187"/>
<path transform="matrix(1,0,0,-1,0,416.13188)" stroke-width="1" stroke-linecap="butt" stroke-linejoin="round" fill="none" stroke="#000000" d="M61.621877 331.9972H64.62187"/>
<path transform="matrix(1,0,0,-1,0,416.13188)" d="M550.6459 331.9972H547.6459"/>
<path transform="matrix(1,0,0,-1,0,416.13188)" stroke-width="1" stroke-linecap="butt" stroke-linejoin="round" fill="none" stroke="#000000" d="M550.6459 331.9972H547.6459"/>
<path transform="matrix(1,0,0,-1,0,416.13188)" d="M61.621877 347.08247H64.62187"/>
<path transform="matrix(1,0,0,-1,0,416.13188)" stroke-width="1" stroke-linecap="butt" stroke-linejoin="round" fill="none" stroke="#000000" d="M61.621877 347.08247H64.62187"/>
<path transform="matrix(1,0,0,-1,0,416.13188)" d="M550.6459 347.08247H547.6459"/>
<path transform="matrix(1,0,0,-1,0,416.13188)" stroke-width="1" stroke-linecap="butt" stroke-linejoin="round" fill="none" stroke="#000000" d="M550.6459 347.08247H547.6459"/>
<path transform="matrix(1,0,0,-1,0,416.13188)" d="M61.621877 377.253H64.62187"/>
<path transform="matrix(1,0,0,-1,0,416.13188)" stroke-width="1" stroke-linecap="butt" stroke-linejoin="round" fill="none" stroke="#000000" d="M61.621877 377.253H64.62187"/>
<path transform="matrix(1,0,0,-1,0,416.13188)" d="M550.6459 377.253H547.6459"/>
<path transform="matrix(1,0,0,-1,0,416.13188)" stroke-width="1" stroke-linecap="butt" stroke-linejoin="round" fill="none" stroke="#000000" d="M550.6459 377.253H547.6459"/>
<path transform="matrix(1,0,0,-1,0,416.13188)" d="M61.621877 392.33824H64.62187"/>
<path transform="matrix(1,0,0,-1,0,416.13188)" stroke-width="1" stroke-linecap="butt" stroke-linejoin="round" fill="none" stroke="#000000" d="M61.621877 392.33824H64.62187"/>
<path transform="matrix(1,0,0,-1,0,416.13188)" d="M550.6459 392.33824H547.6459"/>
<path transform="matrix(1,0,0,-1,0,416.13188)" stroke-width="1" stroke-linecap="butt" stroke-linejoin="round" fill="none" stroke="#000000" d="M550.6459 392.33824H547.6459"/>
<path transform="matrix(1,0,0,-1,0,416.13188)" d="M61.621877 407.4235H64.62187"/>
<path transform="matrix(1,0,0,-1,0,416.13188)" stroke-width="1" stroke-linecap="butt" stroke-linejoin="round" fill="none" stroke="#000000" d="M61.621877 407.4235H64.62187"/>
<path transform="matrix(1,0,0,-1,0,416.13188)" d="M550.6459 407.4235H547.6459"/>
<path transform="matrix(1,0,0,-1,0,416.13188)" stroke-width="1" stroke-linecap="butt" stroke-linejoin="round" fill="none" stroke="#000000" d="M550.6459 407.4235H547.6459"/>
<text xml:space="preserve" transform="matrix(0 -1 1 0 19.2 218.23)" font-size="14" font-family="DejaVuSerif"><tspan y="-.4890625" x="0">d</tspan></text>
<text xml:space="preserve" transform="matrix(0 -1 1 0 19.2 218.23)" font-size="9.8" font-family="DejaVuSerif"><tspan y="1.690625" x="8.961914">L</tspan></text>
<text xml:space="preserve" transform="matrix(0 -1 1 0 19.2 218.23)" font-size="14" font-family="DejaVuSerif"><tspan y="-.48906256" x="19.520646">/</tspan></text>
<text xml:space="preserve" transform="matrix(0 -1 1 0 19.2 218.23)" font-size="15.052159" font-family="STIXSizeOneSym"><tspan y="4.0596878" x="27.92508">(</tspan></text>
<text xml:space="preserve" transform="matrix(0 -1 1 0 19.2 218.23)" font-size="9.8" font-family="DejaVuSerif"><tspan y="-6.7718746" x="38.94507">c</tspan><tspan y="4.887501" x="34.94507">H</tspan></text>
<text xml:space="preserve" transform="matrix(0 -1 1 0 19.2 218.23)" font-size="6.86" font-family="DejaVuSerif"><tspan y="6.413282" x="43.491357">0</tspan></text>
<text xml:space="preserve" transform="matrix(0 -1 1 0 19.2 218.23)" font-size="15.052159" font-family="STIXSizeOneSym"><tspan y="4.059688" x="49.860197">)</tspan></text>
<path transform="matrix(0,-1,-1,-0,19.2,218.23)" d="M34.94507 3.1296876H48.110197V4.0046875H34.94507Z"/>
<g clip-path="url(#clip_1)">
<path transform="matrix(1,0,0,-1,0,416.13188)" stroke-width="2.5" stroke-linecap="square" stroke-linejoin="round" fill="none" stroke="#000000" d="M83.85024 60.46551 102.612857 61.850969 126.84419 63.872644 157.56687 66.6677 195.84793 70.38156 242.88787 75.175899 299.976 81.2249 368.4462 88.710178 449.7657 97.830158 528.41757 106.82478"/>
</g>
<g clip-path="url(#clip_2)">
<path transform="matrix(1,0,0,-1,0,416.13188)" stroke-width="2.5" stroke-linecap="butt" stroke-dasharray="9.25,4" stroke-linejoin="round" fill="none" stroke="#000000" d="M83.85024 60.465517 92.38679 61.157167 100.92333 62.071264 109.50433 63.2143 118.08534 64.5821 126.66635 66.17467 135.29181 68.002 143.91728 70.05643 152.58722 72.35031 161.3016 74.88717 170.01599 77.65583 178.77484 80.6722 187.57816 83.93986 196.42594 87.462368 205.31816 91.24333 214.25487 95.286388 223.23603 99.59515 232.26165 104.17331 241.33171 109.02451 250.44626 114.15246 259.60527 119.56086 268.80873 125.25345 278.1011 131.26335 287.43797 137.56749 296.8637 144.20157 306.33396 151.14008 315.84864 158.38684 325.45225 165.98155 335.10035 173.89492 344.8373 182.1693 354.66325 190.81262 364.53364 199.79177 374.49293 209.15322 384.54118 218.90509 394.63386 229.01036 404.81547 239.51972 415.08598 250.44145 425.44544 261.7839 435.8938 273.55558 446.38667 285.71269 456.9684 298.31318 467.6391 311.36567 478.39869 324.87886 489.24723 338.86149 500.18467 353.3224 511.21104 368.2705 522.32638 383.7148 528.41757 392.33824"/>
</g>
<g clip-path="url(#clip_3)">
<path transform="matrix(1,0,0,-1,0,416.13188)" stroke-width="2.5" stroke-linecap="butt" stroke-dasharray="2.5,4.125" stroke-linejoin="round" fill="none" stroke="#000000" d="M83.85024 60.46551 94.07631 61.272146 105.94744 62.438447 120.17502 64.067798 137.51488 66.28549 158.76732 69.23532 184.64373 73.05858 215.67761 77.875049 252.3581 83.79869 295.1742 90.94391 344.61503 99.425159 401.25856 109.372379 465.72727 120.92421 528.41757 132.34272"/>
</g>
<path transform="matrix(1,0,0,-1,0,416.13188)" stroke-width="1.2" stroke-linecap="square" stroke-miterlimit="10" stroke-linejoin="miter" fill="none" stroke="#000000" d="M61.621877 43.871877V408.9319"/>
<path transform="matrix(1,0,0,-1,0,416.13188)" stroke-width="1.2" stroke-linecap="square" stroke-miterlimit="10" stroke-linejoin="miter" fill="none" stroke="#000000" d="M550.6459 43.871877V408.9319"/>
<path transform="matrix(1,0,0,-1,0,416.13188)" stroke-width="1.2" stroke-linecap="square" stroke-miterlimit="10" stroke-linejoin="miter" fill="none" stroke="#000000" d="M61.621877 43.871877H550.6459"/>
<path transform="matrix(1,0,0,-1,0,416.13188)" stroke-width="1.2" stroke-linecap="square" stroke-miterlimit="10" stroke-linejoin="miter" fill="none" stroke="#000000" d="M61.621877 408.9319H550.6459"/>
<path transform="matrix(1,0,0,-1,0,416.13188)" stroke-width="2.5" stroke-linecap="square" stroke-linejoin="round" fill="none" stroke="#000000" d="M72.421878 392.33189H84.421878 96.421878"/>
<text xml:space="preserve" transform="matrix(1 0 -0 1 106.02187 28)" font-size="12" font-family="DejaVuSerif"><tspan y="-.875" x="0 9.837891 17.566407 21.404297 28.183594 32.23828 43.617189 50.771486 55.59375 60.416017 67.51758 73.25391">Only-matter </tspan></text>
<text xml:space="preserve" transform="matrix(1 0 -0 1 106.02187 28)" font-size="8.4" font-family="DejaVuSerif"><tspan y=".99531248" x="87.12668">m</tspan></text>
<text xml:space="preserve" transform="matrix(1 0 -0 1 106.02187 28)" font-size="12" font-family="DejaVuSerif"><tspan y="-.875" x="97.67941 110.00988 117.644649 121.4591 129.09387 153.89614 166.22661 173.86138 177.67583">=1.0,=0.0</tspan></text>
<g clip-path="url(#clip_4)">
<path transform="matrix(.012,0,0,-.012,183.09024,27.125)" d="M547 80H711V147H768V0H479V89C537 111 582 148 612 199 642 249 657 312 657 388 657 478 634 551 590 607 545 662 487 690 415 690 343 690 284 662 240 607 195 551 173 478 173 388 173 312 188 248 218 198 248 148 292 111 350 89V0H62V147H119V80H282C214 108 160 151 120 208 80 265 61 329 61 399 61 448 70 494 89 537 107 579 135 617 171 651 203 680 239 702 281 718 323 734 367 742 415 742 462 742 506 734 548 719 589 703 626 681 658 651 694 617 721 579 740 536 759 493 769 447 769 399 769 329 749 266 709 209 669 151 615 108 547 80Z"/>
</g>
<g clip-path="url(#clip_5)">
<path transform="matrix(.012,0,0,-.012,241.20597,27.125)" d="M547 80H711V147H768V0H479V89C537 111 582 148 612 199 642 249 657 312 657 388 657 478 634 551 590 607 545 662 487 690 415 690 343 690 284 662 240 607 195 551 173 478 173 388 173 312 188 248 218 198 248 148 292 111 350 89V0H62V147H119V80H282C214 108 160 151 120 208 80 265 61 329 61 399 61 448 70 494 89 537 107 579 135 617 171 651 203 680 239 702 281 718 323 734 367 742 415 742 462 742 506 734 548 719 589 703 626 681 658 651 694 617 721 579 740 536 759 493 769 447 769 399 769 329 749 266 709 209 669 151 615 108 547 80Z"/>
</g>
<g clip-path="url(#clip_6)">
<path transform="matrix(.0084,0,0,-.0084,251.26428,28.995312)" d="M548 52 334 611 119 52H199V0H-5V52H58L318 729H400L660 52H732V0H467V52H548Z"/>
</g>
<path transform="matrix(1,0,0,-1,0,416.13188)" stroke-width="2.5" stroke-linecap="butt" stroke-dasharray="9.25,4" stroke-linejoin="round" fill="none" stroke="#000000" d="M72.421878 373.33189H84.421878 96.421878"/>
<text xml:space="preserve" transform="matrix(1 0 -0 1 106.02187 47)" font-size="12" font-family="DejaVuSerif"><tspan y="-.875" x="0 9.837891 17.566407 21.404297 28.183594 32.23828 36.07617 43.23047 54.609376 62.291017 69.97266 77.12695">Only-lambda </tspan></text>
<text xml:space="preserve" transform="matrix(1 0 -0 1 106.02187 47)" font-size="8.4" font-family="DejaVuSerif"><tspan y=".99531248" x="90.999729">m</tspan></text>
<text xml:space="preserve" transform="matrix(1 0 -0 1 106.02187 47)" font-size="12" font-family="DejaVuSerif"><tspan y="-.875" x="101.55246 113.88293 121.51769 125.332149 132.96692 157.76918 170.09966 177.73442 181.54888">=0.0,=1.0</tspan></text>
<g clip-path="url(#clip_7)">
<path transform="matrix(.012,0,0,-.012,186.96329,46.125)" d="M547 80H711V147H768V0H479V89C537 111 582 148 612 199 642 249 657 312 657 388 657 478 634 551 590 607 545 662 487 690 415 690 343 690 284 662 240 607 195 551 173 478 173 388 173 312 188 248 218 198 248 148 292 111 350 89V0H62V147H119V80H282C214 108 160 151 120 208 80 265 61 329 61 399 61 448 70 494 89 537 107 579 135 617 171 651 203 680 239 702 281 718 323 734 367 742 415 742 462 742 506 734 548 719 589 703 626 681 658 651 694 617 721 579 740 536 759 493 769 447 769 399 769 329 749 266 709 209 669 151 615 108 547 80Z"/>
</g>
<g clip-path="url(#clip_8)">
<path transform="matrix(.012,0,0,-.012,245.07901,46.125)" d="M547 80H711V147H768V0H479V89C537 111 582 148 612 199 642 249 657 312 657 388 657 478 634 551 590 607 545 662 487 690 415 690 343 690 284 662 240 607 195 551 173 478 173 388 173 312 188 248 218 198 248 148 292 111 350 89V0H62V147H119V80H282C214 108 160 151 120 208 80 265 61 329 61 399 61 448 70 494 89 537 107 579 135 617 171 651 203 680 239 702 281 718 323 734 367 742 415 742 462 742 506 734 548 719 589 703 626 681 658 651 694 617 721 579 740 536 759 493 769 447 769 399 769 329 749 266 709 209 669 151 615 108 547 80Z"/>
</g>
<g clip-path="url(#clip_9)">
<path transform="matrix(.0084,0,0,-.0084,255.13733,47.99531)" d="M548 52 334 611 119 52H199V0H-5V52H58L318 729H400L660 52H732V0H467V52H548Z"/>
</g>
<path transform="matrix(1,0,0,-1,0,416.13188)" stroke-width="2.5" stroke-linecap="butt" stroke-dasharray="2.5,4.125" stroke-linejoin="round" fill="none" stroke="#000000" d="M72.421878 354.83189H84.421878 96.421878"/>
<text xml:space="preserve" transform="matrix(1 0 -0 1 106.02187 65.5)" font-size="12" font-family="DejaVuSerif"><tspan y="-.875" x="0 10.113281 17.841797 21.679688 28.458985 35.560548 41.296876 47.45508 54.679689 58.49414 65.64844 73.37695 80.53125 84.36914 88.20703 94.365238 101.51953 109.20117 116.42578">Universo analisado </tspan></text>
<text xml:space="preserve" transform="matrix(1 0 -0 1 106.02187 65.5)" font-size="8.4" font-family="DejaVuSerif"><tspan y=".99531248" x="130.29856">m</tspan></text>
<text xml:space="preserve" transform="matrix(1 0 -0 1 106.02187 65.5)" font-size="12" font-family="DejaVuSerif"><tspan y="-.875" x="140.85129 153.18177 160.81653 164.63098 172.26575 179.90052 187.53528 212.33754 224.66802 232.30278 236.11724 243.752 251.38677">=0.315,=0.685</tspan></text>
<g clip-path="url(#clip_10)">
<path transform="matrix(.012,0,0,-.012,226.26212,64.625)" d="M547 80H711V147H768V0H479V89C537 111 582 148 612 199 642 249 657 312 657 388 657 478 634 551 590 607 545 662 487 690 415 690 343 690 284 662 240 607 195 551 173 478 173 388 173 312 188 248 218 198 248 148 292 111 350 89V0H62V147H119V80H282C214 108 160 151 120 208 80 265 61 329 61 399 61 448 70 494 89 537 107 579 135 617 171 651 203 680 239 702 281 718 323 734 367 742 415 742 462 742 506 734 548 719 589 703 626 681 658 651 694 617 721 579 740 536 759 493 769 447 769 399 769 329 749 266 709 209 669 151 615 108 547 80Z"/>
</g>
<g clip-path="url(#clip_11)">
<path transform="matrix(.012,0,0,-.012,299.64738,64.625)" d="M547 80H711V147H768V0H479V89C537 111 582 148 612 199 642 249 657 312 657 388 657 478 634 551 590 607 545 662 487 690 415 690 343 690 284 662 240 607 195 551 173 478 173 388 173 312 188 248 218 198 248 148 292 111 350 89V0H62V147H119V80H282C214 108 160 151 120 208 80 265 61 329 61 399 61 448 70 494 89 537 107 579 135 617 171 651 203 680 239 702 281 718 323 734 367 742 415 742 462 742 506 734 548 719 589 703 626 681 658 651 694 617 721 579 740 536 759 493 769 447 769 399 769 329 749 266 709 209 669 151 615 108 547 80Z"/>
</g>
<g clip-path="url(#clip_12)">
<path transform="matrix(.0084,0,0,-.0084,309.7057,66.495319)" d="M548 52 334 611 119 52H199V0H-5V52H58L318 729H400L660 52H732V0H467V52H548Z"/>
</g>
</svg>
