<?xml version="1.0" encoding="UTF-8" standalone="no"?>
<svg
   xmlns:dc="http://purl.org/dc/elements/1.1/"
   xmlns:cc="http://creativecommons.org/ns#"
   xmlns:rdf="http://www.w3.org/1999/02/22-rdf-syntax-ns#"
   xmlns:svg="http://www.w3.org/2000/svg"
   xmlns="http://www.w3.org/2000/svg"
   viewBox="0 0 745.40503 648.56665"
   height="648.56665"
   width="745.40503"
   xml:space="preserve"
   id="svg2"
   version="1.1"><metadata
     id="metadata8"><rdf:RDF><cc:Work
         rdf:about=""><dc:format>image/svg+xml</dc:format><dc:type
           rdf:resource="http://purl.org/dc/dcmitype/StillImage" /></cc:Work></rdf:RDF></metadata><defs
     id="defs6"><clipPath
       id="clipPath140"
       clipPathUnits="userSpaceOnUse"><path
         id="path138"
         d="M -770,-347 H 2106 V 1110 H -770 Z" /></clipPath><clipPath
       id="clipPath282"
       clipPathUnits="userSpaceOnUse"><path
         id="path280"
         d="M -770,-347 H 2106 V 1110 H -770 Z" /></clipPath><clipPath
       id="clipPath292"
       clipPathUnits="userSpaceOnUse"><path
         id="path290"
         d="m 51.79375,44.325 h 500.06 v 434.9 h -500.06 z" /></clipPath><clipPath
       id="clipPath306"
       clipPathUnits="userSpaceOnUse"><path
         id="path304"
         d="m 51.79375,44.325 h 500.06 v 434.9 h -500.06 z" /></clipPath><clipPath
       id="clipPath316"
       clipPathUnits="userSpaceOnUse"><path
         id="path314"
         d="m 51.79375,44.325 h 500.06 v 434.9 h -500.06 z" /></clipPath><clipPath
       id="clipPath336"
       clipPathUnits="userSpaceOnUse"><path
         id="path334"
         d="m 51.79375,44.325 h 500.06 v 434.9 h -500.06 z" /></clipPath><clipPath
       id="clipPath352"
       clipPathUnits="userSpaceOnUse"><path
         id="path350"
         d="M -840,-347 H 1645 V 1110 H -840 Z" /></clipPath><clipPath
       id="clipPath362"
       clipPathUnits="userSpaceOnUse"><path
         id="path360"
         d="m 51.79375,44.325 h 500.06 v 434.9 h -500.06 z" /></clipPath><clipPath
       id="clipPath378"
       clipPathUnits="userSpaceOnUse"><path
         id="path376"
         d="M -840,-347 H 1645 V 1110 H -840 Z" /></clipPath><clipPath
       id="clipPath388"
       clipPathUnits="userSpaceOnUse"><path
         id="path386"
         d="m 51.79375,44.325 h 500.06 v 434.9 h -500.06 z" /></clipPath><clipPath
       id="clipPath404"
       clipPathUnits="userSpaceOnUse"><path
         id="path402"
         d="M -840,-347 H 1645 V 1110 H -840 Z" /></clipPath></defs><g
     transform="matrix(1.3333333,0,0,-1.3333333,0,648.56667)"
     id="g10"><path
       id="path12"
       style="fill:#ffffff;fill-opacity:1;fill-rule:nonzero;stroke:none"
       d="M 0,0 H 559.05375 V 486.425 H 0 Z" /><path
       id="path14"
       style="fill:#ffffff;fill-opacity:1;fill-rule:nonzero;stroke:none"
       d="m 51.79375,44.325 h 500.06 v 434.9 h -500.06 z" /><path
       id="path16"
       style="fill:#000000;fill-opacity:1;fill-rule:nonzero;stroke:#000000;stroke-width:1.20000005;stroke-linecap:butt;stroke-linejoin:round;stroke-miterlimit:10;stroke-dasharray:none;stroke-opacity:1"
       d="m 51.79375,44.325 v 6" /><path
       id="path18"
       style="fill:#000000;fill-opacity:1;fill-rule:nonzero;stroke:#000000;stroke-width:1.20000005;stroke-linecap:butt;stroke-linejoin:round;stroke-miterlimit:10;stroke-dasharray:none;stroke-opacity:1"
       d="m 51.79375,479.225 v -6" /><g
       transform="translate(42.246875,31.7)"
       id="g20"><text
         id="text24"
         style="font-variant:normal;font-weight:normal;font-size:12px;font-family:'DejaVu Sans';-inkscape-font-specification:DejaVuSerif;writing-mode:lr-tb;fill:#000000;fill-opacity:1;fill-rule:nonzero;stroke:none"
         transform="scale(1,-1)"><tspan
           id="tspan22"
           y="0"
           x="0 7.632 11.448">0.0</tspan></text>
</g><path
       id="path26"
       style="fill:#000000;fill-opacity:1;fill-rule:nonzero;stroke:#000000;stroke-width:1.20000005;stroke-linecap:butt;stroke-linejoin:round;stroke-miterlimit:10;stroke-dasharray:none;stroke-opacity:1"
       d="m 152.81597,44.325 v 6" /><path
       id="path28"
       style="fill:#000000;fill-opacity:1;fill-rule:nonzero;stroke:#000000;stroke-width:1.20000005;stroke-linecap:butt;stroke-linejoin:round;stroke-miterlimit:10;stroke-dasharray:none;stroke-opacity:1"
       d="m 152.81597,479.225 v -6" /><g
       transform="translate(143.2691,31.7)"
       id="g30"><text
         id="text34"
         style="font-variant:normal;font-weight:normal;font-size:12px;font-family:'DejaVu Sans';-inkscape-font-specification:DejaVuSerif;writing-mode:lr-tb;fill:#000000;fill-opacity:1;fill-rule:nonzero;stroke:none"
         transform="scale(1,-1)"><tspan
           id="tspan32"
           y="0"
           x="0 7.632 11.448">0.2</tspan></text>
</g><path
       id="path36"
       style="fill:#000000;fill-opacity:1;fill-rule:nonzero;stroke:#000000;stroke-width:1.20000005;stroke-linecap:butt;stroke-linejoin:round;stroke-miterlimit:10;stroke-dasharray:none;stroke-opacity:1"
       d="m 253.83819,44.325 v 6" /><path
       id="path38"
       style="fill:#000000;fill-opacity:1;fill-rule:nonzero;stroke:#000000;stroke-width:1.20000005;stroke-linecap:butt;stroke-linejoin:round;stroke-miterlimit:10;stroke-dasharray:none;stroke-opacity:1"
       d="m 253.83819,479.225 v -6" /><g
       transform="translate(244.29132,31.7)"
       id="g40"><text
         id="text44"
         style="font-variant:normal;font-weight:normal;font-size:12px;font-family:'DejaVu Sans';-inkscape-font-specification:DejaVuSerif;writing-mode:lr-tb;fill:#000000;fill-opacity:1;fill-rule:nonzero;stroke:none"
         transform="scale(1,-1)"><tspan
           id="tspan42"
           y="0"
           x="0 7.632 11.448">0.4</tspan></text>
</g><path
       id="path46"
       style="fill:#000000;fill-opacity:1;fill-rule:nonzero;stroke:#000000;stroke-width:1.20000005;stroke-linecap:butt;stroke-linejoin:round;stroke-miterlimit:10;stroke-dasharray:none;stroke-opacity:1"
       d="m 354.86042,44.325 v 6" /><path
       id="path48"
       style="fill:#000000;fill-opacity:1;fill-rule:nonzero;stroke:#000000;stroke-width:1.20000005;stroke-linecap:butt;stroke-linejoin:round;stroke-miterlimit:10;stroke-dasharray:none;stroke-opacity:1"
       d="m 354.86042,479.225 v -6" /><g
       transform="translate(345.31354,31.7)"
       id="g50"><text
         id="text54"
         style="font-variant:normal;font-weight:normal;font-size:12px;font-family:'DejaVu Sans';-inkscape-font-specification:DejaVuSerif;writing-mode:lr-tb;fill:#000000;fill-opacity:1;fill-rule:nonzero;stroke:none"
         transform="scale(1,-1)"><tspan
           id="tspan52"
           y="0"
           x="0 7.632 11.448">0.6</tspan></text>
</g><path
       id="path56"
       style="fill:#000000;fill-opacity:1;fill-rule:nonzero;stroke:#000000;stroke-width:1.20000005;stroke-linecap:butt;stroke-linejoin:round;stroke-miterlimit:10;stroke-dasharray:none;stroke-opacity:1"
       d="m 455.88264,44.325 v 6" /><path
       id="path58"
       style="fill:#000000;fill-opacity:1;fill-rule:nonzero;stroke:#000000;stroke-width:1.20000005;stroke-linecap:butt;stroke-linejoin:round;stroke-miterlimit:10;stroke-dasharray:none;stroke-opacity:1"
       d="m 455.88264,479.225 v -6" /><g
       transform="translate(446.33576,31.7)"
       id="g60"><text
         id="text64"
         style="font-variant:normal;font-weight:normal;font-size:12px;font-family:'DejaVu Sans';-inkscape-font-specification:DejaVuSerif;writing-mode:lr-tb;fill:#000000;fill-opacity:1;fill-rule:nonzero;stroke:none"
         transform="scale(1,-1)"><tspan
           id="tspan62"
           y="0"
           x="0 7.632 11.448">0.8</tspan></text>
</g><path
       id="path66"
       style="fill:#000000;fill-opacity:1;fill-rule:nonzero;stroke:#000000;stroke-width:1;stroke-linecap:butt;stroke-linejoin:round;stroke-miterlimit:10;stroke-dasharray:none;stroke-opacity:1"
       d="m 77.049306,44.325 v 3" /><path
       id="path68"
       style="fill:#000000;fill-opacity:1;fill-rule:nonzero;stroke:#000000;stroke-width:1;stroke-linecap:butt;stroke-linejoin:round;stroke-miterlimit:10;stroke-dasharray:none;stroke-opacity:1"
       d="m 77.049306,479.225 v -3" /><path
       id="path70"
       style="fill:#000000;fill-opacity:1;fill-rule:nonzero;stroke:#000000;stroke-width:1;stroke-linecap:butt;stroke-linejoin:round;stroke-miterlimit:10;stroke-dasharray:none;stroke-opacity:1"
       d="m 102.30486,44.325 v 3" /><path
       id="path72"
       style="fill:#000000;fill-opacity:1;fill-rule:nonzero;stroke:#000000;stroke-width:1;stroke-linecap:butt;stroke-linejoin:round;stroke-miterlimit:10;stroke-dasharray:none;stroke-opacity:1"
       d="m 102.30486,479.225 v -3" /><path
       id="path74"
       style="fill:#000000;fill-opacity:1;fill-rule:nonzero;stroke:#000000;stroke-width:1;stroke-linecap:butt;stroke-linejoin:round;stroke-miterlimit:10;stroke-dasharray:none;stroke-opacity:1"
       d="m 127.56042,44.325 v 3" /><path
       id="path76"
       style="fill:#000000;fill-opacity:1;fill-rule:nonzero;stroke:#000000;stroke-width:1;stroke-linecap:butt;stroke-linejoin:round;stroke-miterlimit:10;stroke-dasharray:none;stroke-opacity:1"
       d="m 127.56042,479.225 v -3" /><path
       id="path78"
       style="fill:#000000;fill-opacity:1;fill-rule:nonzero;stroke:#000000;stroke-width:1;stroke-linecap:butt;stroke-linejoin:round;stroke-miterlimit:10;stroke-dasharray:none;stroke-opacity:1"
       d="m 178.07153,44.325 v 3" /><path
       id="path80"
       style="fill:#000000;fill-opacity:1;fill-rule:nonzero;stroke:#000000;stroke-width:1;stroke-linecap:butt;stroke-linejoin:round;stroke-miterlimit:10;stroke-dasharray:none;stroke-opacity:1"
       d="m 178.07153,479.225 v -3" /><path
       id="path82"
       style="fill:#000000;fill-opacity:1;fill-rule:nonzero;stroke:#000000;stroke-width:1;stroke-linecap:butt;stroke-linejoin:round;stroke-miterlimit:10;stroke-dasharray:none;stroke-opacity:1"
       d="m 203.32708,44.325 v 3" /><path
       id="path84"
       style="fill:#000000;fill-opacity:1;fill-rule:nonzero;stroke:#000000;stroke-width:1;stroke-linecap:butt;stroke-linejoin:round;stroke-miterlimit:10;stroke-dasharray:none;stroke-opacity:1"
       d="m 203.32708,479.225 v -3" /><path
       id="path86"
       style="fill:#000000;fill-opacity:1;fill-rule:nonzero;stroke:#000000;stroke-width:1;stroke-linecap:butt;stroke-linejoin:round;stroke-miterlimit:10;stroke-dasharray:none;stroke-opacity:1"
       d="m 228.58264,44.325 v 3" /><path
       id="path88"
       style="fill:#000000;fill-opacity:1;fill-rule:nonzero;stroke:#000000;stroke-width:1;stroke-linecap:butt;stroke-linejoin:round;stroke-miterlimit:10;stroke-dasharray:none;stroke-opacity:1"
       d="m 228.58264,479.225 v -3" /><path
       id="path90"
       style="fill:#000000;fill-opacity:1;fill-rule:nonzero;stroke:#000000;stroke-width:1;stroke-linecap:butt;stroke-linejoin:round;stroke-miterlimit:10;stroke-dasharray:none;stroke-opacity:1"
       d="m 279.09375,44.325 v 3" /><path
       id="path92"
       style="fill:#000000;fill-opacity:1;fill-rule:nonzero;stroke:#000000;stroke-width:1;stroke-linecap:butt;stroke-linejoin:round;stroke-miterlimit:10;stroke-dasharray:none;stroke-opacity:1"
       d="m 279.09375,479.225 v -3" /><path
       id="path94"
       style="fill:#000000;fill-opacity:1;fill-rule:nonzero;stroke:#000000;stroke-width:1;stroke-linecap:butt;stroke-linejoin:round;stroke-miterlimit:10;stroke-dasharray:none;stroke-opacity:1"
       d="m 304.34931,44.325 v 3" /><path
       id="path96"
       style="fill:#000000;fill-opacity:1;fill-rule:nonzero;stroke:#000000;stroke-width:1;stroke-linecap:butt;stroke-linejoin:round;stroke-miterlimit:10;stroke-dasharray:none;stroke-opacity:1"
       d="m 304.34931,479.225 v -3" /><path
       id="path98"
       style="fill:#000000;fill-opacity:1;fill-rule:nonzero;stroke:#000000;stroke-width:1;stroke-linecap:butt;stroke-linejoin:round;stroke-miterlimit:10;stroke-dasharray:none;stroke-opacity:1"
       d="m 329.60486,44.325 v 3" /><path
       id="path100"
       style="fill:#000000;fill-opacity:1;fill-rule:nonzero;stroke:#000000;stroke-width:1;stroke-linecap:butt;stroke-linejoin:round;stroke-miterlimit:10;stroke-dasharray:none;stroke-opacity:1"
       d="m 329.60486,479.225 v -3" /><path
       id="path102"
       style="fill:#000000;fill-opacity:1;fill-rule:nonzero;stroke:#000000;stroke-width:1;stroke-linecap:butt;stroke-linejoin:round;stroke-miterlimit:10;stroke-dasharray:none;stroke-opacity:1"
       d="m 380.11597,44.325 v 3" /><path
       id="path104"
       style="fill:#000000;fill-opacity:1;fill-rule:nonzero;stroke:#000000;stroke-width:1;stroke-linecap:butt;stroke-linejoin:round;stroke-miterlimit:10;stroke-dasharray:none;stroke-opacity:1"
       d="m 380.11597,479.225 v -3" /><path
       id="path106"
       style="fill:#000000;fill-opacity:1;fill-rule:nonzero;stroke:#000000;stroke-width:1;stroke-linecap:butt;stroke-linejoin:round;stroke-miterlimit:10;stroke-dasharray:none;stroke-opacity:1"
       d="m 405.37153,44.325 v 3" /><path
       id="path108"
       style="fill:#000000;fill-opacity:1;fill-rule:nonzero;stroke:#000000;stroke-width:1;stroke-linecap:butt;stroke-linejoin:round;stroke-miterlimit:10;stroke-dasharray:none;stroke-opacity:1"
       d="m 405.37153,479.225 v -3" /><path
       id="path110"
       style="fill:#000000;fill-opacity:1;fill-rule:nonzero;stroke:#000000;stroke-width:1;stroke-linecap:butt;stroke-linejoin:round;stroke-miterlimit:10;stroke-dasharray:none;stroke-opacity:1"
       d="m 430.62708,44.325 v 3" /><path
       id="path112"
       style="fill:#000000;fill-opacity:1;fill-rule:nonzero;stroke:#000000;stroke-width:1;stroke-linecap:butt;stroke-linejoin:round;stroke-miterlimit:10;stroke-dasharray:none;stroke-opacity:1"
       d="m 430.62708,479.225 v -3" /><path
       id="path114"
       style="fill:#000000;fill-opacity:1;fill-rule:nonzero;stroke:#000000;stroke-width:1;stroke-linecap:butt;stroke-linejoin:round;stroke-miterlimit:10;stroke-dasharray:none;stroke-opacity:1"
       d="m 481.13819,44.325 v 3" /><path
       id="path116"
       style="fill:#000000;fill-opacity:1;fill-rule:nonzero;stroke:#000000;stroke-width:1;stroke-linecap:butt;stroke-linejoin:round;stroke-miterlimit:10;stroke-dasharray:none;stroke-opacity:1"
       d="m 481.13819,479.225 v -3" /><path
       id="path118"
       style="fill:#000000;fill-opacity:1;fill-rule:nonzero;stroke:#000000;stroke-width:1;stroke-linecap:butt;stroke-linejoin:round;stroke-miterlimit:10;stroke-dasharray:none;stroke-opacity:1"
       d="m 506.39375,44.325 v 3" /><path
       id="path120"
       style="fill:#000000;fill-opacity:1;fill-rule:nonzero;stroke:#000000;stroke-width:1;stroke-linecap:butt;stroke-linejoin:round;stroke-miterlimit:10;stroke-dasharray:none;stroke-opacity:1"
       d="m 506.39375,479.225 v -3" /><path
       id="path122"
       style="fill:#000000;fill-opacity:1;fill-rule:nonzero;stroke:#000000;stroke-width:1;stroke-linecap:butt;stroke-linejoin:round;stroke-miterlimit:10;stroke-dasharray:none;stroke-opacity:1"
       d="m 531.64931,44.325 v 3" /><path
       id="path124"
       style="fill:#000000;fill-opacity:1;fill-rule:nonzero;stroke:#000000;stroke-width:1;stroke-linecap:butt;stroke-linejoin:round;stroke-miterlimit:10;stroke-dasharray:none;stroke-opacity:1"
       d="m 531.64931,479.225 v -3" /><g
       transform="translate(290.32375,10.2)"
       id="g126"><text
         id="text130"
         style="font-style:italic;font-variant:normal;font-size:9.80000019px;font-family:'DejaVu Sans';-inkscape-font-specification:DejaVuSerif-Italic;writing-mode:lr-tb;fill:#000000;fill-opacity:1;fill-rule:nonzero;stroke:none"
         transform="matrix(1,0,0,-1,11.73457,-1.5703125)"><tspan
           id="tspan128"
           y="0"
           x="0">M</tspan></text>
<g
         transform="matrix(0.014,0,0,0.014,0,0.609375)"
         id="g132"><g
           id="g134"><g
             clip-path="url(#clipPath140)"
             id="g136"><path
               id="path142"
               style="fill:#000000;fill-opacity:1;fill-rule:nonzero;stroke:none"
               d="m 547,80 h 164 v 67 h 57 V 0 H 479 v 89 c 58,22 103,59 133,110 30,50 45,113 45,189 0,90 -23,163 -67,219 -45,55 -103,83 -175,83 -72,0 -131,-28 -175,-83 -45,-56 -67,-129 -67,-219 0,-76 15,-140 45,-190 30,-50 74,-87 132,-109 V 0 H 62 v 147 h 57 V 80 h 163 c -68,28 -122,71 -162,128 -40,57 -59,121 -59,191 0,49 9,95 28,138 18,42 46,80 82,114 32,29 68,51 110,67 42,16 86,24 134,24 47,0 91,-8 133,-23 41,-16 78,-38 110,-68 36,-34 63,-72 82,-115 19,-43 29,-89 29,-137 C 769,329 749,266 709,209 669,151 615,108 547,80 Z" /></g></g></g></g><path
       id="path144"
       style="fill:#000000;fill-opacity:1;fill-rule:nonzero;stroke:#000000;stroke-width:1.20000005;stroke-linecap:butt;stroke-linejoin:round;stroke-miterlimit:10;stroke-dasharray:none;stroke-opacity:1"
       d="m 51.79375,44.325 h 6" /><path
       id="path146"
       style="fill:#000000;fill-opacity:1;fill-rule:nonzero;stroke:#000000;stroke-width:1.20000005;stroke-linecap:butt;stroke-linejoin:round;stroke-miterlimit:10;stroke-dasharray:none;stroke-opacity:1"
       d="m 551.85375,44.325 h -6" /><g
       transform="translate(29.2,39.7625)"
       id="g148"><text
         id="text152"
         style="font-variant:normal;font-weight:normal;font-size:12px;font-family:'DejaVu Sans';-inkscape-font-specification:DejaVuSerif;writing-mode:lr-tb;fill:#000000;fill-opacity:1;fill-rule:nonzero;stroke:none"
         transform="scale(1,-1)"><tspan
           id="tspan150"
           y="0"
           x="0 7.632 11.448">0.0</tspan></text>
</g><path
       id="path154"
       style="fill:#000000;fill-opacity:1;fill-rule:nonzero;stroke:#000000;stroke-width:1.20000005;stroke-linecap:butt;stroke-linejoin:round;stroke-miterlimit:10;stroke-dasharray:none;stroke-opacity:1"
       d="m 51.79375,127.1631 h 6" /><path
       id="path156"
       style="fill:#000000;fill-opacity:1;fill-rule:nonzero;stroke:#000000;stroke-width:1.20000005;stroke-linecap:butt;stroke-linejoin:round;stroke-miterlimit:10;stroke-dasharray:none;stroke-opacity:1"
       d="m 551.85375,127.1631 h -6" /><g
       transform="translate(29.2,122.6006)"
       id="g158"><text
         id="text162"
         style="font-variant:normal;font-weight:normal;font-size:12px;font-family:'DejaVu Sans';-inkscape-font-specification:DejaVuSerif;writing-mode:lr-tb;fill:#000000;fill-opacity:1;fill-rule:nonzero;stroke:none"
         transform="scale(1,-1)"><tspan
           id="tspan160"
           y="0"
           x="0 7.632 11.448">0.2</tspan></text>
</g><path
       id="path164"
       style="fill:#000000;fill-opacity:1;fill-rule:nonzero;stroke:#000000;stroke-width:1.20000005;stroke-linecap:butt;stroke-linejoin:round;stroke-miterlimit:10;stroke-dasharray:none;stroke-opacity:1"
       d="m 51.79375,210.00119 h 6" /><path
       id="path166"
       style="fill:#000000;fill-opacity:1;fill-rule:nonzero;stroke:#000000;stroke-width:1.20000005;stroke-linecap:butt;stroke-linejoin:round;stroke-miterlimit:10;stroke-dasharray:none;stroke-opacity:1"
       d="m 551.85375,210.00119 h -6" /><g
       transform="translate(29.2,205.43869)"
       id="g168"><text
         id="text172"
         style="font-variant:normal;font-weight:normal;font-size:12px;font-family:'DejaVu Sans';-inkscape-font-specification:DejaVuSerif;writing-mode:lr-tb;fill:#000000;fill-opacity:1;fill-rule:nonzero;stroke:none"
         transform="scale(1,-1)"><tspan
           id="tspan170"
           y="0"
           x="0 7.632 11.448">0.4</tspan></text>
</g><path
       id="path174"
       style="fill:#000000;fill-opacity:1;fill-rule:nonzero;stroke:#000000;stroke-width:1.20000005;stroke-linecap:butt;stroke-linejoin:round;stroke-miterlimit:10;stroke-dasharray:none;stroke-opacity:1"
       d="m 51.79375,292.83929 h 6" /><path
       id="path176"
       style="fill:#000000;fill-opacity:1;fill-rule:nonzero;stroke:#000000;stroke-width:1.20000005;stroke-linecap:butt;stroke-linejoin:round;stroke-miterlimit:10;stroke-dasharray:none;stroke-opacity:1"
       d="m 551.85375,292.83929 h -6" /><g
       transform="translate(29.2,288.27679)"
       id="g178"><text
         id="text182"
         style="font-variant:normal;font-weight:normal;font-size:12px;font-family:'DejaVu Sans';-inkscape-font-specification:DejaVuSerif;writing-mode:lr-tb;fill:#000000;fill-opacity:1;fill-rule:nonzero;stroke:none"
         transform="scale(1,-1)"><tspan
           id="tspan180"
           y="0"
           x="0 7.632 11.448">0.6</tspan></text>
</g><path
       id="path184"
       style="fill:#000000;fill-opacity:1;fill-rule:nonzero;stroke:#000000;stroke-width:1.20000005;stroke-linecap:butt;stroke-linejoin:round;stroke-miterlimit:10;stroke-dasharray:none;stroke-opacity:1"
       d="m 51.79375,375.67738 h 6" /><path
       id="path186"
       style="fill:#000000;fill-opacity:1;fill-rule:nonzero;stroke:#000000;stroke-width:1.20000005;stroke-linecap:butt;stroke-linejoin:round;stroke-miterlimit:10;stroke-dasharray:none;stroke-opacity:1"
       d="m 551.85375,375.67738 h -6" /><g
       transform="translate(29.2,371.11488)"
       id="g188"><text
         id="text192"
         style="font-variant:normal;font-weight:normal;font-size:12px;font-family:'DejaVu Sans';-inkscape-font-specification:DejaVuSerif;writing-mode:lr-tb;fill:#000000;fill-opacity:1;fill-rule:nonzero;stroke:none"
         transform="scale(1,-1)"><tspan
           id="tspan190"
           y="0"
           x="0 7.632 11.448">0.8</tspan></text>
</g><path
       id="path194"
       style="fill:#000000;fill-opacity:1;fill-rule:nonzero;stroke:#000000;stroke-width:1.20000005;stroke-linecap:butt;stroke-linejoin:round;stroke-miterlimit:10;stroke-dasharray:none;stroke-opacity:1"
       d="m 51.79375,458.51548 h 6" /><path
       id="path196"
       style="fill:#000000;fill-opacity:1;fill-rule:nonzero;stroke:#000000;stroke-width:1.20000005;stroke-linecap:butt;stroke-linejoin:round;stroke-miterlimit:10;stroke-dasharray:none;stroke-opacity:1"
       d="m 551.85375,458.51548 h -6" /><g
       transform="translate(29.2,453.95298)"
       id="g198"><text
         id="text202"
         style="font-variant:normal;font-weight:normal;font-size:12px;font-family:'DejaVu Sans';-inkscape-font-specification:DejaVuSerif;writing-mode:lr-tb;fill:#000000;fill-opacity:1;fill-rule:nonzero;stroke:none"
         transform="scale(1,-1)"><tspan
           id="tspan200"
           y="0"
           x="0 7.632 11.448">1.0</tspan></text>
</g><path
       id="path204"
       style="fill:#000000;fill-opacity:1;fill-rule:nonzero;stroke:#000000;stroke-width:1;stroke-linecap:butt;stroke-linejoin:round;stroke-miterlimit:10;stroke-dasharray:none;stroke-opacity:1"
       d="m 51.79375,65.034524 h 3" /><path
       id="path206"
       style="fill:#000000;fill-opacity:1;fill-rule:nonzero;stroke:#000000;stroke-width:1;stroke-linecap:butt;stroke-linejoin:round;stroke-miterlimit:10;stroke-dasharray:none;stroke-opacity:1"
       d="m 551.85375,65.034524 h -3" /><path
       id="path208"
       style="fill:#000000;fill-opacity:1;fill-rule:nonzero;stroke:#000000;stroke-width:1;stroke-linecap:butt;stroke-linejoin:round;stroke-miterlimit:10;stroke-dasharray:none;stroke-opacity:1"
       d="m 51.79375,85.744048 h 3" /><path
       id="path210"
       style="fill:#000000;fill-opacity:1;fill-rule:nonzero;stroke:#000000;stroke-width:1;stroke-linecap:butt;stroke-linejoin:round;stroke-miterlimit:10;stroke-dasharray:none;stroke-opacity:1"
       d="m 551.85375,85.744048 h -3" /><path
       id="path212"
       style="fill:#000000;fill-opacity:1;fill-rule:nonzero;stroke:#000000;stroke-width:1;stroke-linecap:butt;stroke-linejoin:round;stroke-miterlimit:10;stroke-dasharray:none;stroke-opacity:1"
       d="m 51.79375,106.45357 h 3" /><path
       id="path214"
       style="fill:#000000;fill-opacity:1;fill-rule:nonzero;stroke:#000000;stroke-width:1;stroke-linecap:butt;stroke-linejoin:round;stroke-miterlimit:10;stroke-dasharray:none;stroke-opacity:1"
       d="m 551.85375,106.45357 h -3" /><path
       id="path216"
       style="fill:#000000;fill-opacity:1;fill-rule:nonzero;stroke:#000000;stroke-width:1;stroke-linecap:butt;stroke-linejoin:round;stroke-miterlimit:10;stroke-dasharray:none;stroke-opacity:1"
       d="m 51.79375,147.87262 h 3" /><path
       id="path218"
       style="fill:#000000;fill-opacity:1;fill-rule:nonzero;stroke:#000000;stroke-width:1;stroke-linecap:butt;stroke-linejoin:round;stroke-miterlimit:10;stroke-dasharray:none;stroke-opacity:1"
       d="m 551.85375,147.87262 h -3" /><path
       id="path220"
       style="fill:#000000;fill-opacity:1;fill-rule:nonzero;stroke:#000000;stroke-width:1;stroke-linecap:butt;stroke-linejoin:round;stroke-miterlimit:10;stroke-dasharray:none;stroke-opacity:1"
       d="m 51.79375,168.58214 h 3" /><path
       id="path222"
       style="fill:#000000;fill-opacity:1;fill-rule:nonzero;stroke:#000000;stroke-width:1;stroke-linecap:butt;stroke-linejoin:round;stroke-miterlimit:10;stroke-dasharray:none;stroke-opacity:1"
       d="m 551.85375,168.58214 h -3" /><path
       id="path224"
       style="fill:#000000;fill-opacity:1;fill-rule:nonzero;stroke:#000000;stroke-width:1;stroke-linecap:butt;stroke-linejoin:round;stroke-miterlimit:10;stroke-dasharray:none;stroke-opacity:1"
       d="m 51.79375,189.29167 h 3" /><path
       id="path226"
       style="fill:#000000;fill-opacity:1;fill-rule:nonzero;stroke:#000000;stroke-width:1;stroke-linecap:butt;stroke-linejoin:round;stroke-miterlimit:10;stroke-dasharray:none;stroke-opacity:1"
       d="m 551.85375,189.29167 h -3" /><path
       id="path228"
       style="fill:#000000;fill-opacity:1;fill-rule:nonzero;stroke:#000000;stroke-width:1;stroke-linecap:butt;stroke-linejoin:round;stroke-miterlimit:10;stroke-dasharray:none;stroke-opacity:1"
       d="m 51.79375,230.71071 h 3" /><path
       id="path230"
       style="fill:#000000;fill-opacity:1;fill-rule:nonzero;stroke:#000000;stroke-width:1;stroke-linecap:butt;stroke-linejoin:round;stroke-miterlimit:10;stroke-dasharray:none;stroke-opacity:1"
       d="m 551.85375,230.71071 h -3" /><path
       id="path232"
       style="fill:#000000;fill-opacity:1;fill-rule:nonzero;stroke:#000000;stroke-width:1;stroke-linecap:butt;stroke-linejoin:round;stroke-miterlimit:10;stroke-dasharray:none;stroke-opacity:1"
       d="m 51.79375,251.42024 h 3" /><path
       id="path234"
       style="fill:#000000;fill-opacity:1;fill-rule:nonzero;stroke:#000000;stroke-width:1;stroke-linecap:butt;stroke-linejoin:round;stroke-miterlimit:10;stroke-dasharray:none;stroke-opacity:1"
       d="m 551.85375,251.42024 h -3" /><path
       id="path236"
       style="fill:#000000;fill-opacity:1;fill-rule:nonzero;stroke:#000000;stroke-width:1;stroke-linecap:butt;stroke-linejoin:round;stroke-miterlimit:10;stroke-dasharray:none;stroke-opacity:1"
       d="m 51.79375,272.12976 h 3" /><path
       id="path238"
       style="fill:#000000;fill-opacity:1;fill-rule:nonzero;stroke:#000000;stroke-width:1;stroke-linecap:butt;stroke-linejoin:round;stroke-miterlimit:10;stroke-dasharray:none;stroke-opacity:1"
       d="m 551.85375,272.12976 h -3" /><path
       id="path240"
       style="fill:#000000;fill-opacity:1;fill-rule:nonzero;stroke:#000000;stroke-width:1;stroke-linecap:butt;stroke-linejoin:round;stroke-miterlimit:10;stroke-dasharray:none;stroke-opacity:1"
       d="m 51.79375,313.54881 h 3" /><path
       id="path242"
       style="fill:#000000;fill-opacity:1;fill-rule:nonzero;stroke:#000000;stroke-width:1;stroke-linecap:butt;stroke-linejoin:round;stroke-miterlimit:10;stroke-dasharray:none;stroke-opacity:1"
       d="m 551.85375,313.54881 h -3" /><path
       id="path244"
       style="fill:#000000;fill-opacity:1;fill-rule:nonzero;stroke:#000000;stroke-width:1;stroke-linecap:butt;stroke-linejoin:round;stroke-miterlimit:10;stroke-dasharray:none;stroke-opacity:1"
       d="m 51.79375,334.25833 h 3" /><path
       id="path246"
       style="fill:#000000;fill-opacity:1;fill-rule:nonzero;stroke:#000000;stroke-width:1;stroke-linecap:butt;stroke-linejoin:round;stroke-miterlimit:10;stroke-dasharray:none;stroke-opacity:1"
       d="m 551.85375,334.25833 h -3" /><path
       id="path248"
       style="fill:#000000;fill-opacity:1;fill-rule:nonzero;stroke:#000000;stroke-width:1;stroke-linecap:butt;stroke-linejoin:round;stroke-miterlimit:10;stroke-dasharray:none;stroke-opacity:1"
       d="m 51.79375,354.96786 h 3" /><path
       id="path250"
       style="fill:#000000;fill-opacity:1;fill-rule:nonzero;stroke:#000000;stroke-width:1;stroke-linecap:butt;stroke-linejoin:round;stroke-miterlimit:10;stroke-dasharray:none;stroke-opacity:1"
       d="m 551.85375,354.96786 h -3" /><path
       id="path252"
       style="fill:#000000;fill-opacity:1;fill-rule:nonzero;stroke:#000000;stroke-width:1;stroke-linecap:butt;stroke-linejoin:round;stroke-miterlimit:10;stroke-dasharray:none;stroke-opacity:1"
       d="m 51.79375,396.3869 h 3" /><path
       id="path254"
       style="fill:#000000;fill-opacity:1;fill-rule:nonzero;stroke:#000000;stroke-width:1;stroke-linecap:butt;stroke-linejoin:round;stroke-miterlimit:10;stroke-dasharray:none;stroke-opacity:1"
       d="m 551.85375,396.3869 h -3" /><path
       id="path256"
       style="fill:#000000;fill-opacity:1;fill-rule:nonzero;stroke:#000000;stroke-width:1;stroke-linecap:butt;stroke-linejoin:round;stroke-miterlimit:10;stroke-dasharray:none;stroke-opacity:1"
       d="m 51.79375,417.09643 h 3" /><path
       id="path258"
       style="fill:#000000;fill-opacity:1;fill-rule:nonzero;stroke:#000000;stroke-width:1;stroke-linecap:butt;stroke-linejoin:round;stroke-miterlimit:10;stroke-dasharray:none;stroke-opacity:1"
       d="m 551.85375,417.09643 h -3" /><path
       id="path260"
       style="fill:#000000;fill-opacity:1;fill-rule:nonzero;stroke:#000000;stroke-width:1;stroke-linecap:butt;stroke-linejoin:round;stroke-miterlimit:10;stroke-dasharray:none;stroke-opacity:1"
       d="m 51.79375,437.80595 h 3" /><path
       id="path262"
       style="fill:#000000;fill-opacity:1;fill-rule:nonzero;stroke:#000000;stroke-width:1;stroke-linecap:butt;stroke-linejoin:round;stroke-miterlimit:10;stroke-dasharray:none;stroke-opacity:1"
       d="m 551.85375,437.80595 h -3" /><path
       id="path264"
       style="fill:#000000;fill-opacity:1;fill-rule:nonzero;stroke:#000000;stroke-width:1;stroke-linecap:butt;stroke-linejoin:round;stroke-miterlimit:10;stroke-dasharray:none;stroke-opacity:1"
       d="m 51.79375,479.225 h 3" /><path
       id="path266"
       style="fill:#000000;fill-opacity:1;fill-rule:nonzero;stroke:#000000;stroke-width:1;stroke-linecap:butt;stroke-linejoin:round;stroke-miterlimit:10;stroke-dasharray:none;stroke-opacity:1"
       d="m 551.85375,479.225 h -3" /><g
       transform="rotate(90,-115.0375,133.2375)"
       id="g268"><text
         id="text272"
         style="font-style:italic;font-variant:normal;font-size:9.80000019px;font-family:'DejaVu Sans';-inkscape-font-specification:DejaVuSerif-Italic;writing-mode:lr-tb;fill:#000000;fill-opacity:1;fill-rule:nonzero;stroke:none"
         transform="matrix(1,0,0,-1,11.73457,-1.5703125)"><tspan
           id="tspan270"
           y="0"
           x="0 7.1538086">EE</tspan></text>
<g
         transform="matrix(0.014,0,0,0.014,0,0.609375)"
         id="g274"><g
           id="g276"><g
             clip-path="url(#clipPath282)"
             id="g278"><path
               id="path284"
               style="fill:#000000;fill-opacity:1;fill-rule:nonzero;stroke:none"
               d="m 547,80 h 164 v 67 h 57 V 0 H 479 v 89 c 58,22 103,59 133,110 30,50 45,113 45,189 0,90 -23,163 -67,219 -45,55 -103,83 -175,83 -72,0 -131,-28 -175,-83 -45,-56 -67,-129 -67,-219 0,-76 15,-140 45,-190 30,-50 74,-87 132,-109 V 0 H 62 v 147 h 57 V 80 h 163 c -68,28 -122,71 -162,128 -40,57 -59,121 -59,191 0,49 9,95 28,138 18,42 46,80 82,114 32,29 68,51 110,67 42,16 86,24 134,24 47,0 91,-8 133,-23 41,-16 78,-38 110,-68 36,-34 63,-72 82,-115 19,-43 29,-89 29,-137 C 769,329 749,266 709,209 669,151 615,108 547,80 Z" /></g></g></g></g><g
       id="g286"><g
         clip-path="url(#clipPath292)"
         id="g288"><path
           id="path294"
           style="fill:none;stroke:#1f77b4;stroke-width:2;stroke-linecap:butt;stroke-linejoin:round;stroke-miterlimit:10;stroke-dasharray:none;stroke-opacity:1"
           d="m 205.20043,344.36065 -1.743,-1.81851 -0.13035,-0.13472 -4.12896,-4.00718 -0.92215,-0.92546 -3.42923,-3.21645 -1.62188,-1.57586 -2.84116,-2.56604 -2.20995,-2.07158 -2.39111,-2.07033 -2.66,-2.3954 -2.11544,-1.7465 -2.93567,-2.52655 -2.06572,-1.61536 -2.98539,-2.43975 -2.31758,-1.70215 -2.73353,-2.104 -2.98661,-2.03791 -2.06451,-1.48088 -4.25875,-2.66102 -0.79236,-0.52227 -5.05111,-2.41693 -4.46,-1.20271 -0.59111,-0.17491 -0.47923,0.17491 -2.1348,4.14191 0.97237,4.1419 1.57717,4.14191 0.0645,0.11765 2.44373,4.02425 2.3368,4.14191 0.27058,0.41438 2.6559,3.72752 2.39521,3.63297 0.36894,0.50894 3.18605,4.1419 1.49612,2.0143 1.71496,2.12761 3.17383,4.1419 0.16233,0.20138 3.41356,3.94053 1.63755,1.98915 1.91404,2.15275 3.13707,3.71969 0.3868,0.42222 3.80245,4.1419 0.86186,0.96183 3.06454,3.18008 1.98657,2.15692 1.97616,1.98498 3.07495,3.2361 0.93586,0.90581 4.08577,4.1419 0.0295,0.0297 4.38741,4.11217 0.6637,0.64769 3.87371,3.49421 1.1774,1.10689 3.51384,3.03501 1.53728,1.38526 3.35342,2.75665 1.69769,1.45755 3.45659,2.68435 1.59452,1.29478 3.91646,2.84713 1.13465,0.86354 4.87351,3.27836 0.1776,0.12524 5.05111,2.67764 3.44845,1.33903 1.60266,0.66632 5.05111,-0.47798 0.15742,-0.18834 0.45922,-4.14191 -0.61664,-2.30376 -0.56552,-1.83814 -2.01834,-4.14191 -2.08921,-4.1419 -0.37804,-0.62177 -2.32324,-3.52014 -2.59238,-4.1419 -0.13549,-0.19274 -2.97854,-3.94916 -2.07257,-2.88603 -0.9734,-1.25588 -3.23644,-4.1419 -0.84127,-1.06059 -2.61115,-3.08132 -2.43996,-3.00092 -0.99625,-1.14098 -1.13843,-1.32286" /><path
           id="path296"
           style="fill:none;stroke:#ff7f0e;stroke-width:2;stroke-linecap:butt;stroke-linejoin:round;stroke-miterlimit:10;stroke-dasharray:none;stroke-opacity:1"
           d="m 112.40708,265.67709 -1.64462,2.31077 -0.18735,4.1419 0.90838,4.14191 1.52578,4.1419 4.44892,8.94474 5.05112,8.41962 7.91925,11.62897 2.91526,4.14191 9.37557,12.42571 9.47052,11.66247 m 15.62244,18.02814 3.17582,3.44463 7.08336,7.74879 12.58527,12.96074 7.61917,7.6434 15.15334,14.24574 10.10222,8.89336 10.10222,8.35764 10.10222,7.72278 5.05111,3.58793 5.07121,3.39391 5.03102,2.94741 5.05111,2.65447 5.05111,2.21741 5.05111,1.30374 5.05111,-0.39914 0.6242,-0.44008 1.94041,-4.14191 -0.23712,-4.1419 -1.04714,-4.14191 -1.48828,-4.1419 -4.1467,-8.28381 -2.42851,-4.14191 -3.31908,-5.43742 -5.05111,-7.57888 -8.7123,-11.83513 -6.44104,-8.30415 -10.34783,-12.40537 -11.04348,-12.42571 -3.86424,-4.277 -15.15334,-15.79316 -10.10222,-9.97535 -12.11122,-11.37354 -8.09322,-7.34807 -15.15334,-12.90438 -11.22211,-8.74088 -5.70209,-4.14191 -3.28024,-2.33157 -10.10222,-6.49209 -5.05111,-2.73054 -5.05111,-2.24198 -5.05112,-1.47035 -5.05111,0.53005 v 0" /><path
           id="path298"
           style="fill:none;stroke:#2ca02c;stroke-width:2;stroke-linecap:butt;stroke-linejoin:round;stroke-miterlimit:10;stroke-dasharray:none;stroke-opacity:1"
           d="m 310.62763,454.37357 -1.58208,-4.1419 -3.97313,-8.28381 -2.26928,-4.14191 -3.50495,-6.0678 -5.05111,-8.03803 -5.05111,-7.52554 -8.30387,-11.50387 -6.25996,-8.28381 -5.64061,-7.13865 -7.74185,-9.42896 -7.41149,-8.806 -14.22169,-16.04543 -5.98275,-6.51334 -11.84577,-12.52038 m -16.83082,-17.0346 -6.68119,-6.50631 -15.15333,-14.29449 -15.15333,-13.65231 -10.10223,-8.67585 -10.10222,-8.35246 -10.10222,-7.99559 -5.06483,-3.86039 -10.0885,-7.26499 -10.10223,-6.72555 -5.05111,-3.12883 -6.54428,-3.59015 -3.55794,-1.80631 -5.285832,-2.3356 -4.81639,-1.45571 -5.051111,-0.58725 -5.092567,2.04296 -1.152506,4.14191 0.253923,4.1419 0.940039,4.23283 1.559283,4.05098 3.621261,8.28381 4.921678,9.00173 7.287564,11.7078 2.814658,4.40336 11.55257,16.30616 3.60076,4.90479 15.58493,19.94664 10.28223,12.42571 10.69879,12.42572 3.84294,4.42221 15.15334,16.6931 15.37223,16.16183 12.42094,12.42571 7.5646,7.42489 15.15334,14.1922 13.04331,11.51815 4.85998,4.14191 4.97683,4.1419 5.1114,4.14191 5.26706,4.1419 5.44806,4.14191 1.70225,1.29439 3.9575,2.84751 v 0" /></g></g><g
       id="g300"><g
         clip-path="url(#clipPath306)"
         id="g302"><path
           id="path308"
           style="fill:none;stroke:#000000;stroke-width:1.5;stroke-linecap:butt;stroke-linejoin:round;stroke-miterlimit:10;stroke-dasharray:5.55, 2.4;stroke-dashoffset:0;stroke-opacity:0.6"
           d="m 51.79375,458.51548 5.051111,-4.14191 5.051111,-4.1419 5.051111,-4.14191 5.051111,-4.1419 5.051112,-4.14191 5.051111,-4.1419 5.051111,-4.14191 5.051111,-4.1419 5.051111,-4.14191 5.05111,-4.1419 5.05111,-4.14191 5.05111,-4.1419 5.05111,-4.14191 5.05112,-4.1419 5.05111,-4.14191 5.05111,-4.1419 5.05111,-4.14191 5.05111,-4.1419 5.05111,-4.1419 5.05111,-4.14191 5.05111,-4.1419 5.05111,-4.14191 5.05112,-4.1419 5.05111,-4.14191 5.05111,-4.1419 5.05111,-4.14191 5.05111,-4.1419 5.05111,-4.14191 5.05111,-4.1419 5.05111,-4.14191 5.05111,-4.1419 5.05112,-4.14191 5.05111,-4.1419 5.05111,-4.14191 5.05111,-4.1419 5.05111,-4.14191 5.05111,-4.1419 5.05111,-4.14191 5.05111,-4.1419 5.05111,-4.1419 5.05112,-4.14191 5.05111,-4.1419 5.05111,-4.14191 5.05111,-4.1419 5.05111,-4.14191 5.05111,-4.1419 5.05111,-4.14191 5.05111,-4.1419 5.05111,-4.14191 5.05112,-4.1419 5.05111,-4.14191 5.05111,-4.1419 5.05111,-4.14191 5.05111,-4.1419 5.05111,-4.14191 5.05111,-4.1419 5.05111,-4.14191 5.05111,-4.1419 5.05112,-4.14191 5.05111,-4.1419 5.05111,-4.1419 5.05111,-4.14191 5.05111,-4.1419 5.05111,-4.14191 5.05111,-4.1419 5.05111,-4.14191 5.05111,-4.1419 5.05112,-4.14191 5.05111,-4.1419 5.05111,-4.14191 5.05111,-4.1419 5.05111,-4.14191 5.05111,-4.1419 5.05111,-4.14191 5.05111,-4.1419 5.05111,-4.14191 5.05112,-4.1419 5.05111,-4.14191 5.05111,-4.1419 5.05111,-4.1419 5.05111,-4.14191 5.05111,-4.1419 5.05111,-4.14191 5.05111,-4.1419 5.05111,-4.14191 5.05112,-4.1419 5.05111,-4.141908 5.05111,-4.141905 5.05111,-4.141905 5.05111,-4.141904 5.05111,-4.141905 5.05111,-4.141905 5.05111,-4.141905 5.05111,-4.141904 5.05112,-4.141905 5.05111,-4.141905 5.05111,-4.141905 5.05111,-4.141904 5.05111,-4.141905" /></g></g><g
       id="g310"><g
         clip-path="url(#clipPath316)"
         id="g312"><path
           id="path318"
           style="fill:#ff0000;fill-opacity:1;fill-rule:nonzero;stroke:#ff0000;stroke-width:1;stroke-linecap:butt;stroke-linejoin:round;stroke-miterlimit:10;stroke-dasharray:none;stroke-opacity:1"
           d="m 194.27597,350.96786 8,8 m -8,0 8,-8" /></g></g><g
       id="g320"><path
         id="path322"
         style="fill:none;stroke:#000000;stroke-width:1.20000005;stroke-linecap:square;stroke-linejoin:miter;stroke-miterlimit:10;stroke-dasharray:none;stroke-opacity:1"
         d="m 51.79375,44.325 v 434.9" /><path
         id="path324"
         style="fill:none;stroke:#000000;stroke-width:1.20000005;stroke-linecap:square;stroke-linejoin:miter;stroke-miterlimit:10;stroke-dasharray:none;stroke-opacity:1"
         d="m 551.85375,44.325 v 434.9" /><path
         id="path326"
         style="fill:none;stroke:#000000;stroke-width:1.20000005;stroke-linecap:square;stroke-linejoin:miter;stroke-miterlimit:10;stroke-dasharray:none;stroke-opacity:1"
         d="m 51.79375,44.325 h 500.06" /><path
         id="path328"
         style="fill:none;stroke:#000000;stroke-width:1.20000005;stroke-linecap:square;stroke-linejoin:miter;stroke-miterlimit:10;stroke-dasharray:none;stroke-opacity:1"
         d="m 51.79375,479.225 h 500.06" /></g><g
       id="g330"><g
         clip-path="url(#clipPath336)"
         id="g332"><g
           transform="rotate(48.832242,-275.59098,405.26329)"
           id="g338"><text
             id="text342"
             style="font-variant:normal;font-weight:normal;font-size:10px;font-family:'DejaVu Sans';-inkscape-font-specification:DejaVuSerif;writing-mode:lr-tb;fill:#1f77b4;fill-opacity:1;fill-rule:nonzero;stroke:none"
             transform="matrix(1,0,0,-1,0,0.578125)"><tspan
               id="tspan340"
               y="0"
               x="0">1</tspan></text>
<g
             transform="matrix(0.01,0,0,0.01,6.3623047,0.578125)"
             id="g344"><g
               id="g346"><g
                 clip-path="url(#clipPath352)"
                 id="g348"><path
                   id="path354"
                   style="fill:#1f77b4;fill-opacity:1;fill-rule:nonzero;stroke:none"
                   d="m 258,34 c 48,0 89,19 121,57 32,38 55,94 69,169 13,67 11,121 -5,163 -15,35 -48,53 -99,53 -50,0 -89,-18 -119,-53 -32,-38 -55,-93 -69,-163 -14,-75 -13,-131 5,-169 17,-38 49,-57 97,-57 z m 96,485 c 132,0 249,0 351,0 L 695,467 H 516 C 558,417 570,348 553,260 537,177 501,111 446,61 390,11 325,-13 249,-13 173,-13 117,11 81,61 45,111 35,177 51,260 c 16,82 52,148 108,198 44,40 109,61 195,61 z" /></g></g></g></g></g></g><g
       id="g356"><g
         clip-path="url(#clipPath362)"
         id="g358"><g
           transform="rotate(50.775258,-278.87631,335.87527)"
           id="g364"><text
             id="text368"
             style="font-variant:normal;font-weight:normal;font-size:10px;font-family:'DejaVu Sans';-inkscape-font-specification:DejaVuSerif;writing-mode:lr-tb;fill:#ff7f0e;fill-opacity:1;fill-rule:nonzero;stroke:none"
             transform="matrix(1,0,0,-1,0,0.578125)"><tspan
               id="tspan366"
               y="0"
               x="0">2</tspan></text>
<g
             transform="matrix(0.01,0,0,0.01,6.3623047,0.578125)"
             id="g370"><g
               id="g372"><g
                 clip-path="url(#clipPath378)"
                 id="g374"><path
                   id="path380"
                   style="fill:#ff7f0e;fill-opacity:1;fill-rule:nonzero;stroke:none"
                   d="m 258,34 c 48,0 89,19 121,57 32,38 55,94 69,169 13,67 11,121 -5,163 -15,35 -48,53 -99,53 -50,0 -89,-18 -119,-53 -32,-38 -55,-93 -69,-163 -14,-75 -13,-131 5,-169 17,-38 49,-57 97,-57 z m 96,485 c 132,0 249,0 351,0 L 695,467 H 516 C 558,417 570,348 553,260 537,177 501,111 446,61 390,11 325,-13 249,-13 173,-13 117,11 81,61 45,111 35,177 51,260 c 16,82 52,148 108,198 44,40 109,61 195,61 z" /></g></g></g></g></g></g><g
       id="g382"><g
         clip-path="url(#clipPath388)"
         id="g384"><g
           transform="rotate(47.048759,-262.62637,402.16388)"
           id="g390"><text
             id="text394"
             style="font-variant:normal;font-weight:normal;font-size:10px;font-family:'DejaVu Sans';-inkscape-font-specification:DejaVuSerif;writing-mode:lr-tb;fill:#2ca02c;fill-opacity:1;fill-rule:nonzero;stroke:none"
             transform="matrix(1,0,0,-1,0,0.578125)"><tspan
               id="tspan392"
               y="0"
               x="0">3</tspan></text>
<g
             transform="matrix(0.01,0,0,0.01,6.3623047,0.578125)"
             id="g396"><g
               id="g398"><g
                 clip-path="url(#clipPath404)"
                 id="g400"><path
                   id="path406"
                   style="fill:#2ca02c;fill-opacity:1;fill-rule:nonzero;stroke:none"
                   d="m 258,34 c 48,0 89,19 121,57 32,38 55,94 69,169 13,67 11,121 -5,163 -15,35 -48,53 -99,53 -50,0 -89,-18 -119,-53 -32,-38 -55,-93 -69,-163 -14,-75 -13,-131 5,-169 17,-38 49,-57 97,-57 z m 96,485 c 132,0 249,0 351,0 L 695,467 H 516 C 558,417 570,348 553,260 537,177 501,111 446,61 390,11 325,-13 249,-13 173,-13 117,11 81,61 45,111 35,177 51,260 c 16,82 52,148 108,198 44,40 109,61 195,61 z" /></g></g></g></g></g></g><g
       id="g408"><path
         id="path410"
         style="fill:none;stroke:#000000;stroke-width:1.5;stroke-linecap:butt;stroke-linejoin:round;stroke-miterlimit:10;stroke-dasharray:5.55, 2.4;stroke-dashoffset:0;stroke-opacity:0.6"
         d="m 414.9225,463.5 h 12 12" /><g
         transform="translate(448.5225,459.3)"
         id="g412"><text
           id="text416"
           style="font-variant:normal;font-weight:normal;font-size:12px;font-family:'DejaVu Sans';-inkscape-font-specification:DejaVuSerif;writing-mode:lr-tb;fill:#000000;fill-opacity:1;fill-rule:nonzero;stroke:none"
           transform="scale(1,-1)"><tspan
             id="tspan414"
             y="0"
             x="0 10.116 17.844 21.684 28.464001 35.568001 41.304001 47.459999 54.683998 58.5 66.575996 70.416 77.568001 85.295998">Universo Plano</tspan></text>
</g><path
         id="path418"
         style="fill:#ff0000;fill-opacity:1;fill-rule:nonzero;stroke:#ff0000;stroke-width:1;stroke-linecap:butt;stroke-linejoin:round;stroke-miterlimit:10;stroke-dasharray:none;stroke-opacity:1"
         d="m 422.9225,441.875 8,8 m -8,0 8,-8" /><g
         transform="translate(448.5225,441.675)"
         id="g420"><text
           id="text424"
           style="font-variant:normal;font-weight:normal;font-size:12px;font-family:'DejaVu Sans';-inkscape-font-specification:DejaVuSerif;writing-mode:lr-tb;fill:#000000;fill-opacity:1;fill-rule:nonzero;stroke:none"
           transform="scale(1,-1)"><tspan
             id="tspan422"
             y="0"
             x="0 8.8199997 15.924 22.08 26.903999 30.719999 39.048 42.888">Best Fit</tspan></text>
</g></g></g></svg>